<svg viewBox="0 0 330 200" xmlns="http://www.w3.org/2000/svg"><g><g><g><g><g><line x1="31.125" y1="176" x2="26.125" y2="176" style="visibility: inherit;" fill="rgb(0, 0, 0)" stroke="rgb(204, 204, 204)" stroke-width="1px"></line><line x1="31.125" y1="156.44444444444446" x2="26.125" y2="156.44444444444446" style="visibility: inherit;" fill="rgb(0, 0, 0)" stroke="rgb(204, 204, 204)" stroke-width="1px"></line><line x1="31.125" y1="136.88888888888889" x2="26.125" y2="136.88888888888889" style="visibility: inherit;" fill="rgb(0, 0, 0)" stroke="rgb(204, 204, 204)" stroke-width="1px"></line><line x1="31.125" y1="117.33333333333334" x2="26.125" y2="117.33333333333334" style="visibility: inherit;" fill="rgb(0, 0, 0)" stroke="rgb(204, 204, 204)" stroke-width="1px"></line><line x1="31.125" y1="97.77777777777779" x2="26.125" y2="97.77777777777779" style="visibility: inherit;" fill="rgb(0, 0, 0)" stroke="rgb(204, 204, 204)" stroke-width="1px"></line><line x1="31.125" y1="78.22222222222221" x2="26.125" y2="78.22222222222221" style="visibility: inherit;" fill="rgb(0, 0, 0)" stroke="rgb(204, 204, 204)" stroke-width="1px"></line><line x1="31.125" y1="58.66666666666667" x2="26.125" y2="58.66666666666667" style="visibility: inherit;" fill="rgb(0, 0, 0)" stroke="rgb(204, 204, 204)" stroke-width="1px"></line><line x1="31.125" y1="39.111111111111114" x2="26.125" y2="39.111111111111114" style="visibility: inherit;" fill="rgb(0, 0, 0)" stroke="rgb(204, 204, 204)" stroke-width="1px"></line><line x1="31.125" y1="19.55555555555557" x2="26.125" y2="19.55555555555557" style="visibility: inherit;" fill="rgb(0, 0, 0)" stroke="rgb(204, 204, 204)" stroke-width="1px"></line><line x1="31.125" y1="0" x2="26.125" y2="0" style="visibility: inherit;" fill="rgb(0, 0, 0)" stroke="rgb(204, 204, 204)" stroke-width="1px"></line></g><g transform="translate(21.125, 0)"><text x="0" y="176" dx="0em" dy="0.3em" style="text-anchor: end; visibility: hidden; font-family: &quot;Helvetica Neue&quot;, sans-serif; font-size: 12px; font-weight: 200;" fill="rgb(50, 49, 63)" stroke="none" stroke-width="1px">-5</text><text x="0" y="156.44444444444446" dx="0em" dy="0.3em" style="text-anchor: end; visibility: inherit; font-family: &quot;Helvetica Neue&quot;, sans-serif; font-size: 12px; font-weight: 200;" fill="rgb(50, 49, 63)" stroke="none" stroke-width="1px">0</text><text x="0" y="136.88888888888889" dx="0em" dy="0.3em" style="text-anchor: end; visibility: hidden; font-family: &quot;Helvetica Neue&quot;, sans-serif; font-size: 12px; font-weight: 200;" fill="rgb(50, 49, 63)" stroke="none" stroke-width="1px">5</text><text x="0" y="117.33333333333334" dx="0em" dy="0.3em" style="text-anchor: end; visibility: inherit; font-family: &quot;Helvetica Neue&quot;, sans-serif; font-size: 12px; font-weight: 200;" fill="rgb(50, 49, 63)" stroke="none" stroke-width="1px">10</text><text x="0" y="97.77777777777779" dx="0em" dy="0.3em" style="text-anchor: end; visibility: hidden; font-family: &quot;Helvetica Neue&quot;, sans-serif; font-size: 12px; font-weight: 200;" fill="rgb(50, 49, 63)" stroke="none" stroke-width="1px">15</text><text x="0" y="78.22222222222221" dx="0em" dy="0.3em" style="text-anchor: end; visibility: inherit; font-family: &quot;Helvetica Neue&quot;, sans-serif; font-size: 12px; font-weight: 200;" fill="rgb(50, 49, 63)" stroke="none" stroke-width="1px">20</text><text x="0" y="58.66666666666667" dx="0em" dy="0.3em" style="text-anchor: end; visibility: hidden; font-family: &quot;Helvetica Neue&quot;, sans-serif; font-size: 12px; font-weight: 200;" fill="rgb(50, 49, 63)" stroke="none" stroke-width="1px">25</text><text x="0" y="39.111111111111114" dx="0em" dy="0.3em" style="text-anchor: end; visibility: inherit; font-family: &quot;Helvetica Neue&quot;, sans-serif; font-size: 12px; font-weight: 200;" fill="rgb(50, 49, 63)" stroke="none" stroke-width="1px">30</text><text x="0" y="19.55555555555557" dx="0em" dy="0.3em" style="text-anchor: end; visibility: hidden; font-family: &quot;Helvetica Neue&quot;, sans-serif; font-size: 12px; font-weight: 200;" fill="rgb(50, 49, 63)" stroke="none" stroke-width="1px">35</text><text x="0" y="0" dx="0em" dy="0.3em" style="text-anchor: end; visibility: hidden; font-family: &quot;Helvetica Neue&quot;, sans-serif; font-size: 12px; font-weight: 200;" fill="rgb(50, 49, 63)" stroke="none" stroke-width="1px">40</text></g><line x1="31.125" y1="0" x2="31.125" y2="176" fill="rgb(0, 0, 0)" stroke="rgb(204, 204, 204)" stroke-width="1px"></line></g></g><g transform="translate(31, 0)" clip-path="url(#clip_0)"><clipPath id="clip_0"><rect width="298" height="175"></rect></clipPath><g><g><g><line x1="0" y1="0" x2="0" y2="176" fill="rgb(0, 0, 0)" stroke="rgb(60, 60, 60)" stroke-width="1px" opacity="0.25"></line><line x1="24.90625" y1="0" x2="24.90625" y2="176" fill="rgb(0, 0, 0)" stroke="rgb(60, 60, 60)" stroke-width="1px" opacity="0.25"></line><line x1="49.8125" y1="0" x2="49.8125" y2="176" fill="rgb(0, 0, 0)" stroke="rgb(60, 60, 60)" stroke-width="1px" opacity="0.25"></line><line x1="74.71875" y1="0" x2="74.71875" y2="176" fill="rgb(0, 0, 0)" stroke="rgb(60, 60, 60)" stroke-width="1px" opacity="0.25"></line><line x1="99.625" y1="0" x2="99.625" y2="176" fill="rgb(0, 0, 0)" stroke="rgb(60, 60, 60)" stroke-width="1px" opacity="0.25"></line><line x1="124.53125" y1="0" x2="124.53125" y2="176" fill="rgb(0, 0, 0)" stroke="rgb(60, 60, 60)" stroke-width="1px" opacity="0.25"></line><line x1="149.4375" y1="0" x2="149.4375" y2="176" fill="rgb(0, 0, 0)" stroke="rgb(60, 60, 60)" stroke-width="1px" opacity="0.25"></line><line x1="174.34375" y1="0" x2="174.34375" y2="176" fill="rgb(0, 0, 0)" stroke="rgb(60, 60, 60)" stroke-width="1px" opacity="0.25"></line><line x1="199.25" y1="0" x2="199.25" y2="176" fill="rgb(0, 0, 0)" stroke="rgb(60, 60, 60)" stroke-width="1px" opacity="0.25"></line><line x1="224.15625" y1="0" x2="224.15625" y2="176" fill="rgb(0, 0, 0)" stroke="rgb(60, 60, 60)" stroke-width="1px" opacity="0.25"></line><line x1="249.0625" y1="0" x2="249.0625" y2="176" fill="rgb(0, 0, 0)" stroke="rgb(60, 60, 60)" stroke-width="1px" opacity="0.25"></line><line x1="273.96875" y1="0" x2="273.96875" y2="176" fill="rgb(0, 0, 0)" stroke="rgb(60, 60, 60)" stroke-width="1px" opacity="0.25"></line><line x1="298.875" y1="0" x2="298.875" y2="176" fill="rgb(0, 0, 0)" stroke="rgb(60, 60, 60)" stroke-width="1px" opacity="0.25"></line></g><g><line x1="0" y1="176" x2="298.875" y2="176" fill="rgb(0, 0, 0)" stroke="rgb(60, 60, 60)" stroke-width="1px" opacity="0.25"></line><line x1="0" y1="156.44444444444446" x2="298.875" y2="156.44444444444446" fill="rgb(0, 0, 0)" stroke="rgb(60, 60, 60)" stroke-width="1px" opacity="0.25"></line><line x1="0" y1="136.88888888888889" x2="298.875" y2="136.88888888888889" fill="rgb(0, 0, 0)" stroke="rgb(60, 60, 60)" stroke-width="1px" opacity="0.25"></line><line x1="0" y1="117.33333333333334" x2="298.875" y2="117.33333333333334" fill="rgb(0, 0, 0)" stroke="rgb(60, 60, 60)" stroke-width="1px" opacity="0.25"></line><line x1="0" y1="97.77777777777779" x2="298.875" y2="97.77777777777779" fill="rgb(0, 0, 0)" stroke="rgb(60, 60, 60)" stroke-width="1px" opacity="0.25"></line><line x1="0" y1="78.22222222222221" x2="298.875" y2="78.22222222222221" fill="rgb(0, 0, 0)" stroke="rgb(60, 60, 60)" stroke-width="1px" opacity="0.25"></line><line x1="0" y1="58.66666666666667" x2="298.875" y2="58.66666666666667" fill="rgb(0, 0, 0)" stroke="rgb(60, 60, 60)" stroke-width="1px" opacity="0.25"></line><line x1="0" y1="39.111111111111114" x2="298.875" y2="39.111111111111114" fill="rgb(0, 0, 0)" stroke="rgb(60, 60, 60)" stroke-width="1px" opacity="0.25"></line><line x1="0" y1="19.55555555555557" x2="298.875" y2="19.55555555555557" fill="rgb(0, 0, 0)" stroke="rgb(60, 60, 60)" stroke-width="1px" opacity="0.25"></line><line x1="0" y1="0" x2="298.875" y2="0" fill="rgb(0, 0, 0)" stroke="rgb(60, 60, 60)" stroke-width="1px" opacity="0.25"></line></g></g></g><g><g><line x1="0" y1="156.44444444444446" x2="298.875" y2="156.44444444444446" fill="rgb(0, 0, 0)" stroke="rgb(153, 153, 153)" stroke-width="1.5px"></line></g></g><g><g><line x1="24.90625" y1="0" x2="24.90625" y2="176" fill="rgb(0, 0, 0)" stroke="rgb(153, 153, 153)" stroke-width="1.5px"></line></g></g><g><g><g><g><g><path stroke="rgb(51, 187, 238)" stroke-width="2px" d="M29.887500000000003,156.00243355962965L34.86875,156.2906351963679L39.85,156.3231092525853L44.83125,156.35550226304267L49.8125,156.3674244330989L54.793749999999996,156.37867687741914L59.775000000000006,156.37755866448083L64.75625000000001,156.39077980319658L69.7375,156.39651630951298L74.71875,156.39429372515943L79.7,156.39588287406497L84.68124999999999,156.40571099287934L89.6625,156.40657354195912L94.64375,156.41031039622095L99.625,156.4100789040327L104.60624999999999,156.40889422992865L109.58749999999999,156.4059769468175L114.56875000000001,156.4162706034051L119.55000000000001,156.4170397604505L124.53125,156.42225289874608L129.51250000000002,156.41753171914155L134.49375,156.4120787309276L139.475,156.41775856531328L144.45625,156.4207817196846L149.4375,156.424330043296L154.41875000000002,156.4230851476391L159.4,156.41586453682845L164.38125000000002,156.42001906997626L169.36249999999998,156.42177287108368L174.34375,156.42867972552776L179.325,156.43049883221587L184.30625,156.43272662717436L189.2875,156.4257466758291L194.26875,156.42338882519138L199.25,156.43087685513828L204.23125000000002,156.42472495651907L209.21249999999998,156.42072637544737L214.19375,156.43345346194175L219.17499999999998,156.43550553512242L224.15625,156.4340215453671L229.13750000000002,156.4363735160894L234.11875,156.42958434282076L239.10000000000002,156.43509975903564L244.08124999999998,156.42395159784292L249.0625,156.4305450629029L254.04375,156.42844115959275L259.02500000000003,156.4336869738996L264.00624999999997,156.43403292000295L268.9875,156.43367945849894L273.96875,156.4315808231632" style="fill: none;" fill="none"></path></g><g><path stroke="rgb(204, 51, 17)" stroke-width="2px" d="M29.887500000000003,88.34684583875868L34.86875,155.30550308227538L39.85,156.03055012226105L44.83125,156.21932007074355L49.8125,156.2719068725904L54.793749999999996,156.26641585297054L59.775000000000006,156.23974712822172L64.75625000000001,156.10705848534903L69.7375,156.2989743206236L74.71875,155.9360591729482L79.7,156.32461647788682L84.68124999999999,156.27970364226235L89.6625,156.24120592276256L94.64375,156.11565069092643L99.625,156.01383390426636L104.60624999999999,156.16686662832896L109.58749999999999,156.15241864257388L114.56875000000001,156.31821756362916L119.55000000000001,156.28570402993097L124.53125,156.09783901108636L129.51250000000002,156.23496604760487L134.49375,156.1983978509903L139.475,156.2946735408571L144.45625,155.39021413591172L149.4375,156.28099067078696L154.41875000000002,156.24232376416523L159.4,156.11456854608323L164.38125000000002,156.27144883473716L169.36249999999998,156.24209263987012L174.34375,156.20648803181118L179.325,156.32141578594843L184.30625,156.26016618675655L189.2875,156.25042003525627L194.26875,156.16957088311514L199.25,156.25908070537778L204.23125000000002,156.30129573345184L209.21249999999998,156.24240742524466L214.19375,156.31294054852592L219.17499999999998,156.29741984473335L224.15625,156.02687258985307L229.13750000000002,156.32102938890458L234.11875,156.2889979335997L239.10000000000002,156.10383786890242L244.08124999999998,156.1296318239636L249.0625,156.21435623831218L254.04375,156.2374496102333L259.02500000000003,156.2897625684738L264.00624999999997,156.2962869087855L268.9875,156.08487066957684L273.96875,156.22255655394662" style="fill: none;" fill="none"></path></g><g><path stroke="rgb(0, 119, 187)" stroke-width="2px" d="M29.887500000000003,47.08599921332464L34.86875,72.9718512641059L39.85,82.56154378255208L44.83125,102.56322462293838L49.8125,114.46883578830295L54.793749999999996,104.34230617947048L59.775000000000006,100.62843356662326L64.75625000000001,108.64470893012152L69.7375,102.84549797905815L74.71875,83.18597819010417L79.7,85.2352518717448L84.68124999999999,119.32882520887587L89.6625,105.41012810601129L94.64375,124.89125298394097L99.625,117.9538326687283L104.60624999999999,112.518211195204L109.58749999999999,104.8959726969401L114.56875000000001,121.74137505425347L119.55000000000001,117.08892245822483L124.53125,122.4199679904514L129.51250000000002,61.51254069010416L134.49375,88.22668253580729L139.475,103.57552659776475L144.45625,99.00638563368057L149.4375,97.55649990505643L154.41875000000002,113.51374715169271L159.4,112.86055501302084L164.38125000000002,90.28973456488715L169.36249999999998,89.07164510091147L174.34375,109.45784030490451L179.325,109.46171942816841L184.30625,101.48025919596354L189.2875,109.79768880208334L194.26875,102.89541931152344L199.25,100.3916988796658L204.23125000000002,111.45716654459635L209.21249999999998,133.7482126871745L214.19375,112.0835964626736L219.17499999999998,128.31722751193576L224.15625,120.41287231445312L229.13750000000002,118.99326985677084L234.11875,121.6989284939236L239.10000000000002,117.6345472547743L244.08124999999998,101.3960710313585L249.0625,112.74525553385416L254.04375,106.88328484429253L259.02500000000003,117.54537217881943L264.00624999999997,118.46453043619792L268.9875,94.60174560546875L273.96875,118.89914143880208" style="fill: none;" fill="none"></path></g><g><path stroke="rgb(255, 112, 67)" stroke-width="2px" d="M29.887500000000003,51.55274997287326L34.86875,59.08944634331597L39.85,65.67974853515625L44.83125,79.8341844346788L49.8125,81.31838921440972L54.793749999999996,78.82605997721355L59.775000000000006,70.46158854166667L64.75625000000001,81.35401746961807L69.7375,81.40546061197917L74.71875,59.218688286675345L79.7,56.66139119466146L84.68124999999999,98.42712809244792L89.6625,75.09352281358505L94.64375,99.77381422254774L99.625,89.61396145290799L104.60624999999999,88.35042656792534L109.58749999999999,71.44343939887152L114.56875000000001,94.94178432888455L119.55000000000001,90.38260226779514L124.53125,89.53443942599826L129.51250000000002,30.05126953125L134.49375,45.721883138020814L139.475,72.25136379665798L144.45625,67.40648803710937L149.4375,69.48249037000869L154.41875000000002,86.13977389865451L159.4,73.33318413628471L164.38125000000002,65.2238993326823L169.36249999999998,70.93639322916667L174.34375,87.2240485297309L179.325,87.89964260525174L184.30625,79.1064459906684L189.2875,87.57389322916667L194.26875,72.81277737087674L199.25,72.85611165364584L204.23125000000002,90.52059461805555L209.21249999999998,118.58819986979167L214.19375,97.22414855957031L219.17499999999998,108.74377204047309L224.15625,100.03989969889322L229.13750000000002,97.93087259928384L234.11875,100.67278238932292L239.10000000000002,96.46856248643662L244.08124999999998,79.83559434678818L249.0625,83.94236246744792L254.04375,74.74721408420139L259.02500000000003,87.10436265733506L264.00624999999997,98.33260803222656L268.9875,75.09200100368923L273.96875,91.85933227539063" style="fill: none;" fill="none"></path></g></g></g></g></g></g><g transform="translate(31, 176)" clip-path="url(#clip_1)"><clipPath id="clip_1"><rect width="298" height="23"></rect></clipPath><g><g><line x1="0" y1="0" x2="0" y2="5" style="visibility: inherit;" fill="rgb(0, 0, 0)" stroke="rgb(204, 204, 204)" stroke-width="1px"></line><line x1="24.90625" y1="0" x2="24.90625" y2="5" style="visibility: inherit;" fill="rgb(0, 0, 0)" stroke="rgb(204, 204, 204)" stroke-width="1px"></line><line x1="49.8125" y1="0" x2="49.8125" y2="5" style="visibility: inherit;" fill="rgb(0, 0, 0)" stroke="rgb(204, 204, 204)" stroke-width="1px"></line><line x1="74.71875" y1="0" x2="74.71875" y2="5" style="visibility: inherit;" fill="rgb(0, 0, 0)" stroke="rgb(204, 204, 204)" stroke-width="1px"></line><line x1="99.625" y1="0" x2="99.625" y2="5" style="visibility: inherit;" fill="rgb(0, 0, 0)" stroke="rgb(204, 204, 204)" stroke-width="1px"></line><line x1="124.53125" y1="0" x2="124.53125" y2="5" style="visibility: inherit;" fill="rgb(0, 0, 0)" stroke="rgb(204, 204, 204)" stroke-width="1px"></line><line x1="149.4375" y1="0" x2="149.4375" y2="5" style="visibility: inherit;" fill="rgb(0, 0, 0)" stroke="rgb(204, 204, 204)" stroke-width="1px"></line><line x1="174.34375" y1="0" x2="174.34375" y2="5" style="visibility: inherit;" fill="rgb(0, 0, 0)" stroke="rgb(204, 204, 204)" stroke-width="1px"></line><line x1="199.25" y1="0" x2="199.25" y2="5" style="visibility: inherit;" fill="rgb(0, 0, 0)" stroke="rgb(204, 204, 204)" stroke-width="1px"></line><line x1="224.15625" y1="0" x2="224.15625" y2="5" style="visibility: inherit;" fill="rgb(0, 0, 0)" stroke="rgb(204, 204, 204)" stroke-width="1px"></line><line x1="249.0625" y1="0" x2="249.0625" y2="5" style="visibility: inherit;" fill="rgb(0, 0, 0)" stroke="rgb(204, 204, 204)" stroke-width="1px"></line><line x1="273.96875" y1="0" x2="273.96875" y2="5" style="visibility: inherit;" fill="rgb(0, 0, 0)" stroke="rgb(204, 204, 204)" stroke-width="1px"></line><line x1="298.875" y1="0" x2="298.875" y2="5" style="visibility: inherit;" fill="rgb(0, 0, 0)" stroke="rgb(204, 204, 204)" stroke-width="1px"></line></g><g transform="translate(0, 8)"><text x="0" y="0" dx="0em" dy="0.95em" style="text-anchor: middle; visibility: hidden; font-family: &quot;Helvetica Neue&quot;, sans-serif; font-size: 12px; font-weight: 200;" fill="rgb(50, 49, 63)" stroke="none" stroke-width="1px">-1k</text><text x="24.90625" y="0" dx="0em" dy="0.95em" style="text-anchor: middle; visibility: inherit; font-family: &quot;Helvetica Neue&quot;, sans-serif; font-size: 12px; font-weight: 200;" fill="rgb(50, 49, 63)" stroke="none" stroke-width="1px">0</text><text x="49.8125" y="0" dx="0em" dy="0.95em" style="text-anchor: middle; visibility: inherit; font-family: &quot;Helvetica Neue&quot;, sans-serif; font-size: 12px; font-weight: 200;" fill="rgb(50, 49, 63)" stroke="none" stroke-width="1px">1k</text><text x="74.71875" y="0" dx="0em" dy="0.95em" style="text-anchor: middle; visibility: inherit; font-family: &quot;Helvetica Neue&quot;, sans-serif; font-size: 12px; font-weight: 200;" fill="rgb(50, 49, 63)" stroke="none" stroke-width="1px">2k</text><text x="99.625" y="0" dx="0em" dy="0.95em" style="text-anchor: middle; visibility: inherit; font-family: &quot;Helvetica Neue&quot;, sans-serif; font-size: 12px; font-weight: 200;" fill="rgb(50, 49, 63)" stroke="none" stroke-width="1px">3k</text><text x="124.53125" y="0" dx="0em" dy="0.95em" style="text-anchor: middle; visibility: inherit; font-family: &quot;Helvetica Neue&quot;, sans-serif; font-size: 12px; font-weight: 200;" fill="rgb(50, 49, 63)" stroke="none" stroke-width="1px">4k</text><text x="149.4375" y="0" dx="0em" dy="0.95em" style="text-anchor: middle; visibility: inherit; font-family: &quot;Helvetica Neue&quot;, sans-serif; font-size: 12px; font-weight: 200;" fill="rgb(50, 49, 63)" stroke="none" stroke-width="1px">5k</text><text x="174.34375" y="0" dx="0em" dy="0.95em" style="text-anchor: middle; visibility: inherit; font-family: &quot;Helvetica Neue&quot;, sans-serif; font-size: 12px; font-weight: 200;" fill="rgb(50, 49, 63)" stroke="none" stroke-width="1px">6k</text><text x="199.25" y="0" dx="0em" dy="0.95em" style="text-anchor: middle; visibility: inherit; font-family: &quot;Helvetica Neue&quot;, sans-serif; font-size: 12px; font-weight: 200;" fill="rgb(50, 49, 63)" stroke="none" stroke-width="1px">7k</text><text x="224.15625" y="0" dx="0em" dy="0.95em" style="text-anchor: middle; visibility: inherit; font-family: &quot;Helvetica Neue&quot;, sans-serif; font-size: 12px; font-weight: 200;" fill="rgb(50, 49, 63)" stroke="none" stroke-width="1px">8k</text><text x="249.0625" y="0" dx="0em" dy="0.95em" style="text-anchor: middle; visibility: inherit; font-family: &quot;Helvetica Neue&quot;, sans-serif; font-size: 12px; font-weight: 200;" fill="rgb(50, 49, 63)" stroke="none" stroke-width="1px">9k</text><text x="273.96875" y="0" dx="0em" dy="0.95em" style="text-anchor: middle; visibility: inherit; font-family: &quot;Helvetica Neue&quot;, sans-serif; font-size: 12px; font-weight: 200;" fill="rgb(50, 49, 63)" stroke="none" stroke-width="1px">10k</text><text x="298.875" y="0" dx="0em" dy="0.95em" style="text-anchor: middle; visibility: hidden; font-family: &quot;Helvetica Neue&quot;, sans-serif; font-size: 12px; font-weight: 200;" fill="rgb(50, 49, 63)" stroke="none" stroke-width="1px">11k</text></g><line x1="0" y1="0" x2="298.875" y2="0" fill="rgb(0, 0, 0)" stroke="rgb(204, 204, 204)" stroke-width="1px"></line></g></g></g></g></svg>