<svg viewBox="0 0 330 200" xmlns="http://www.w3.org/2000/svg"><g><g><g><g><g><line x1="31.125" y1="176" x2="26.125" y2="176" style="visibility: inherit;" fill="rgb(0, 0, 0)" stroke="rgb(204, 204, 204)" stroke-width="1px"></line><line x1="31.125" y1="162.46153846153845" x2="26.125" y2="162.46153846153845" style="visibility: inherit;" fill="rgb(0, 0, 0)" stroke="rgb(204, 204, 204)" stroke-width="1px"></line><line x1="31.125" y1="148.9230769230769" x2="26.125" y2="148.9230769230769" style="visibility: inherit;" fill="rgb(0, 0, 0)" stroke="rgb(204, 204, 204)" stroke-width="1px"></line><line x1="31.125" y1="135.3846153846154" x2="26.125" y2="135.3846153846154" style="visibility: inherit;" fill="rgb(0, 0, 0)" stroke="rgb(204, 204, 204)" stroke-width="1px"></line><line x1="31.125" y1="121.84615384615384" x2="26.125" y2="121.84615384615384" style="visibility: inherit;" fill="rgb(0, 0, 0)" stroke="rgb(204, 204, 204)" stroke-width="1px"></line><line x1="31.125" y1="108.3076923076923" x2="26.125" y2="108.3076923076923" style="visibility: inherit;" fill="rgb(0, 0, 0)" stroke="rgb(204, 204, 204)" stroke-width="1px"></line><line x1="31.125" y1="94.76923076923076" x2="26.125" y2="94.76923076923076" style="visibility: inherit;" fill="rgb(0, 0, 0)" stroke="rgb(204, 204, 204)" stroke-width="1px"></line><line x1="31.125" y1="81.23076923076924" x2="26.125" y2="81.23076923076924" style="visibility: inherit;" fill="rgb(0, 0, 0)" stroke="rgb(204, 204, 204)" stroke-width="1px"></line><line x1="31.125" y1="67.69230769230768" x2="26.125" y2="67.69230769230768" style="visibility: inherit;" fill="rgb(0, 0, 0)" stroke="rgb(204, 204, 204)" stroke-width="1px"></line><line x1="31.125" y1="54.15384615384616" x2="26.125" y2="54.15384615384616" style="visibility: inherit;" fill="rgb(0, 0, 0)" stroke="rgb(204, 204, 204)" stroke-width="1px"></line><line x1="31.125" y1="40.61538461538461" x2="26.125" y2="40.61538461538461" style="visibility: inherit;" fill="rgb(0, 0, 0)" stroke="rgb(204, 204, 204)" stroke-width="1px"></line><line x1="31.125" y1="27.076923076923066" x2="26.125" y2="27.076923076923066" style="visibility: inherit;" fill="rgb(0, 0, 0)" stroke="rgb(204, 204, 204)" stroke-width="1px"></line><line x1="31.125" y1="13.538461538461519" x2="26.125" y2="13.538461538461519" style="visibility: inherit;" fill="rgb(0, 0, 0)" stroke="rgb(204, 204, 204)" stroke-width="1px"></line><line x1="31.125" y1="0" x2="26.125" y2="0" style="visibility: inherit;" fill="rgb(0, 0, 0)" stroke="rgb(204, 204, 204)" stroke-width="1px"></line></g><g transform="translate(21.125, 0)"><text x="0" y="176" dx="0em" dy="0.3em" style="text-anchor: end; visibility: hidden; font-family: &quot;Helvetica Neue&quot;, sans-serif; font-size: 12px; font-weight: 200;" fill="rgb(50, 49, 63)" stroke="none" stroke-width="1px">-1</text><text x="0" y="162.46153846153845" dx="0em" dy="0.3em" style="text-anchor: end; visibility: inherit; font-family: &quot;Helvetica Neue&quot;, sans-serif; font-size: 12px; font-weight: 200;" fill="rgb(50, 49, 63)" stroke="none" stroke-width="1px">0</text><text x="0" y="148.9230769230769" dx="0em" dy="0.3em" style="text-anchor: end; visibility: hidden; font-family: &quot;Helvetica Neue&quot;, sans-serif; font-size: 12px; font-weight: 200;" fill="rgb(50, 49, 63)" stroke="none" stroke-width="1px">1</text><text x="0" y="135.3846153846154" dx="0em" dy="0.3em" style="text-anchor: end; visibility: inherit; font-family: &quot;Helvetica Neue&quot;, sans-serif; font-size: 12px; font-weight: 200;" fill="rgb(50, 49, 63)" stroke="none" stroke-width="1px">2</text><text x="0" y="121.84615384615384" dx="0em" dy="0.3em" style="text-anchor: end; visibility: hidden; font-family: &quot;Helvetica Neue&quot;, sans-serif; font-size: 12px; font-weight: 200;" fill="rgb(50, 49, 63)" stroke="none" stroke-width="1px">3</text><text x="0" y="108.3076923076923" dx="0em" dy="0.3em" style="text-anchor: end; visibility: inherit; font-family: &quot;Helvetica Neue&quot;, sans-serif; font-size: 12px; font-weight: 200;" fill="rgb(50, 49, 63)" stroke="none" stroke-width="1px">4</text><text x="0" y="94.76923076923076" dx="0em" dy="0.3em" style="text-anchor: end; visibility: hidden; font-family: &quot;Helvetica Neue&quot;, sans-serif; font-size: 12px; font-weight: 200;" fill="rgb(50, 49, 63)" stroke="none" stroke-width="1px">5</text><text x="0" y="81.23076923076924" dx="0em" dy="0.3em" style="text-anchor: end; visibility: inherit; font-family: &quot;Helvetica Neue&quot;, sans-serif; font-size: 12px; font-weight: 200;" fill="rgb(50, 49, 63)" stroke="none" stroke-width="1px">6</text><text x="0" y="67.69230769230768" dx="0em" dy="0.3em" style="text-anchor: end; visibility: hidden; font-family: &quot;Helvetica Neue&quot;, sans-serif; font-size: 12px; font-weight: 200;" fill="rgb(50, 49, 63)" stroke="none" stroke-width="1px">7</text><text x="0" y="54.15384615384616" dx="0em" dy="0.3em" style="text-anchor: end; visibility: inherit; font-family: &quot;Helvetica Neue&quot;, sans-serif; font-size: 12px; font-weight: 200;" fill="rgb(50, 49, 63)" stroke="none" stroke-width="1px">8</text><text x="0" y="40.61538461538461" dx="0em" dy="0.3em" style="text-anchor: end; visibility: hidden; font-family: &quot;Helvetica Neue&quot;, sans-serif; font-size: 12px; font-weight: 200;" fill="rgb(50, 49, 63)" stroke="none" stroke-width="1px">9</text><text x="0" y="27.076923076923066" dx="0em" dy="0.3em" style="text-anchor: end; visibility: inherit; font-family: &quot;Helvetica Neue&quot;, sans-serif; font-size: 12px; font-weight: 200;" fill="rgb(50, 49, 63)" stroke="none" stroke-width="1px">10</text><text x="0" y="13.538461538461519" dx="0em" dy="0.3em" style="text-anchor: end; visibility: hidden; font-family: &quot;Helvetica Neue&quot;, sans-serif; font-size: 12px; font-weight: 200;" fill="rgb(50, 49, 63)" stroke="none" stroke-width="1px">11</text><text x="0" y="0" dx="0em" dy="0.3em" style="text-anchor: end; visibility: hidden; font-family: &quot;Helvetica Neue&quot;, sans-serif; font-size: 12px; font-weight: 200;" fill="rgb(50, 49, 63)" stroke="none" stroke-width="1px">12</text></g><line x1="31.125" y1="0" x2="31.125" y2="176" fill="rgb(0, 0, 0)" stroke="rgb(204, 204, 204)" stroke-width="1px"></line></g></g><g transform="translate(31, 0)" clip-path="url(#clip_0)"><clipPath id="clip_0"><rect width="298" height="175"></rect></clipPath><g><g><g><line x1="0" y1="0" x2="0" y2="176" fill="rgb(0, 0, 0)" stroke="rgb(60, 60, 60)" stroke-width="1px" opacity="0.25"></line><line x1="24.90625" y1="0" x2="24.90625" y2="176" fill="rgb(0, 0, 0)" stroke="rgb(60, 60, 60)" stroke-width="1px" opacity="0.25"></line><line x1="49.8125" y1="0" x2="49.8125" y2="176" fill="rgb(0, 0, 0)" stroke="rgb(60, 60, 60)" stroke-width="1px" opacity="0.25"></line><line x1="74.71875" y1="0" x2="74.71875" y2="176" fill="rgb(0, 0, 0)" stroke="rgb(60, 60, 60)" stroke-width="1px" opacity="0.25"></line><line x1="99.625" y1="0" x2="99.625" y2="176" fill="rgb(0, 0, 0)" stroke="rgb(60, 60, 60)" stroke-width="1px" opacity="0.25"></line><line x1="124.53125" y1="0" x2="124.53125" y2="176" fill="rgb(0, 0, 0)" stroke="rgb(60, 60, 60)" stroke-width="1px" opacity="0.25"></line><line x1="149.4375" y1="0" x2="149.4375" y2="176" fill="rgb(0, 0, 0)" stroke="rgb(60, 60, 60)" stroke-width="1px" opacity="0.25"></line><line x1="174.34375" y1="0" x2="174.34375" y2="176" fill="rgb(0, 0, 0)" stroke="rgb(60, 60, 60)" stroke-width="1px" opacity="0.25"></line><line x1="199.25" y1="0" x2="199.25" y2="176" fill="rgb(0, 0, 0)" stroke="rgb(60, 60, 60)" stroke-width="1px" opacity="0.25"></line><line x1="224.15625" y1="0" x2="224.15625" y2="176" fill="rgb(0, 0, 0)" stroke="rgb(60, 60, 60)" stroke-width="1px" opacity="0.25"></line><line x1="249.0625" y1="0" x2="249.0625" y2="176" fill="rgb(0, 0, 0)" stroke="rgb(60, 60, 60)" stroke-width="1px" opacity="0.25"></line><line x1="273.96875" y1="0" x2="273.96875" y2="176" fill="rgb(0, 0, 0)" stroke="rgb(60, 60, 60)" stroke-width="1px" opacity="0.25"></line><line x1="298.875" y1="0" x2="298.875" y2="176" fill="rgb(0, 0, 0)" stroke="rgb(60, 60, 60)" stroke-width="1px" opacity="0.25"></line></g><g><line x1="0" y1="176" x2="298.875" y2="176" fill="rgb(0, 0, 0)" stroke="rgb(60, 60, 60)" stroke-width="1px" opacity="0.25"></line><line x1="0" y1="162.46153846153845" x2="298.875" y2="162.46153846153845" fill="rgb(0, 0, 0)" stroke="rgb(60, 60, 60)" stroke-width="1px" opacity="0.25"></line><line x1="0" y1="148.9230769230769" x2="298.875" y2="148.9230769230769" fill="rgb(0, 0, 0)" stroke="rgb(60, 60, 60)" stroke-width="1px" opacity="0.25"></line><line x1="0" y1="135.3846153846154" x2="298.875" y2="135.3846153846154" fill="rgb(0, 0, 0)" stroke="rgb(60, 60, 60)" stroke-width="1px" opacity="0.25"></line><line x1="0" y1="121.84615384615384" x2="298.875" y2="121.84615384615384" fill="rgb(0, 0, 0)" stroke="rgb(60, 60, 60)" stroke-width="1px" opacity="0.25"></line><line x1="0" y1="108.3076923076923" x2="298.875" y2="108.3076923076923" fill="rgb(0, 0, 0)" stroke="rgb(60, 60, 60)" stroke-width="1px" opacity="0.25"></line><line x1="0" y1="94.76923076923076" x2="298.875" y2="94.76923076923076" fill="rgb(0, 0, 0)" stroke="rgb(60, 60, 60)" stroke-width="1px" opacity="0.25"></line><line x1="0" y1="81.23076923076924" x2="298.875" y2="81.23076923076924" fill="rgb(0, 0, 0)" stroke="rgb(60, 60, 60)" stroke-width="1px" opacity="0.25"></line><line x1="0" y1="67.69230769230768" x2="298.875" y2="67.69230769230768" fill="rgb(0, 0, 0)" stroke="rgb(60, 60, 60)" stroke-width="1px" opacity="0.25"></line><line x1="0" y1="54.15384615384616" x2="298.875" y2="54.15384615384616" fill="rgb(0, 0, 0)" stroke="rgb(60, 60, 60)" stroke-width="1px" opacity="0.25"></line><line x1="0" y1="40.61538461538461" x2="298.875" y2="40.61538461538461" fill="rgb(0, 0, 0)" stroke="rgb(60, 60, 60)" stroke-width="1px" opacity="0.25"></line><line x1="0" y1="27.076923076923066" x2="298.875" y2="27.076923076923066" fill="rgb(0, 0, 0)" stroke="rgb(60, 60, 60)" stroke-width="1px" opacity="0.25"></line><line x1="0" y1="13.538461538461519" x2="298.875" y2="13.538461538461519" fill="rgb(0, 0, 0)" stroke="rgb(60, 60, 60)" stroke-width="1px" opacity="0.25"></line><line x1="0" y1="0" x2="298.875" y2="0" fill="rgb(0, 0, 0)" stroke="rgb(60, 60, 60)" stroke-width="1px" opacity="0.25"></line></g></g></g><g><g><line x1="0" y1="162.46153846153845" x2="298.875" y2="162.46153846153845" fill="rgb(0, 0, 0)" stroke="rgb(153, 153, 153)" stroke-width="1.5px"></line></g></g><g><g><line x1="24.90625" y1="0" x2="24.90625" y2="176" fill="rgb(0, 0, 0)" stroke="rgb(153, 153, 153)" stroke-width="1.5px"></line></g></g><g><g><g><g><g><path stroke="rgb(255, 112, 67)" stroke-width="2px" d="M29.887500000000003,151.92762125455417L34.86875,157.53325774119452L39.85,158.5641659956712L44.83125,159.23515629768372L49.8125,159.6888484954834L54.793749999999996,160.01804586557242L59.775000000000006,160.27783298492432L64.75625000000001,160.5048431983361L69.7375,160.73742059560922L74.71875,160.9438582933866L79.7,161.16929191809433L84.68124999999999,161.30657244645633L89.6625,161.41613941009228L94.64375,161.54996021894308L99.625,161.58744722146255L104.60624999999999,161.63007866419278L109.58749999999999,161.7362621655831L114.56875000000001,161.8309399485588L119.55000000000001,161.86494332551956L124.53125,161.89933620966397L129.51250000000002,161.97258776884811L134.49375,161.95170871111063L139.475,162.00547199982864L144.45625,162.02815551024216L149.4375,162.02494695553412L154.41875000000002,162.0826188325882L159.4,162.12746284558222L164.38125000000002,162.10086227380313L169.36249999999998,162.1509994337192L174.34375,162.13085541129112L179.325,162.1219043112718L184.30625,162.1644516793581L189.2875,162.19670295486083L194.26875,162.21034571757684L199.25,162.22423689640485L204.23125000000002,162.1862800694429L209.21249999999998,162.21817467075127L214.19375,162.24413525141202L219.17499999999998,162.20375102758408L224.15625,162.21414324870477L229.13750000000002,162.22744709024062L234.11875,162.2633628375255L239.10000000000002,162.26735507181058L244.08124999999998,162.22680013913376L249.0625,162.24660614820627L254.04375,162.21322543804462L259.02500000000003,162.26414902622884L264.00624999999997,162.29188753091373L268.9875,162.309094362534L273.96875,162.32552380630602" style="fill: none;" fill="none"></path></g><g><path stroke="rgb(187, 187, 187)" stroke-width="2px" d="M29.887500000000003,140.93715946490948L34.86875,153.57226533156177L39.85,155.29860877990723L44.83125,154.78015459500827L49.8125,153.75090584388147L54.793749999999996,154.2445162993211L59.775000000000006,156.43747553458581L64.75625000000001,155.3090556218074L69.7375,155.00869076068585L74.71875,155.61877551445593L79.7,154.9160514978262L84.68124999999999,153.29133840707632L89.6625,155.68103372133695L94.64375,154.9433717727661L99.625,155.3200520001925L104.60624999999999,156.12262259996854L109.58749999999999,153.73599976759692L114.56875000000001,154.5385497900156L119.55000000000001,154.43626660567062L124.53125,153.7943006662222L129.51250000000002,154.61407514718863L134.49375,155.08183156527005L139.475,154.24458811833307L144.45625,153.53551578521729L149.4375,154.33427634605994L154.41875000000002,154.3818745979896L159.4,154.83055540231558L164.38125000000002,155.78383940916794L169.36249999999998,154.80147677201492L174.34375,152.8971190085778L179.325,154.68930193094107L184.30625,153.73339572319617L189.2875,155.1108512878418L194.26875,154.09540469829852L199.25,153.61549069331244L204.23125000000002,153.5196922008808L209.21249999999998,154.4637119586651L214.19375,154.39090604048508L219.17499999999998,154.56327005533072L224.15625,154.10263259594257L229.13750000000002,154.53887257209192L234.11875,154.51188072791467L239.10000000000002,153.49551663031946L244.08124999999998,154.07668495178223L249.0625,154.4660747234638L254.04375,154.18422867701605L259.02500000000003,154.0063555790828L264.00624999999997,152.7400032190176L268.9875,152.57559981712927L273.96875,154.6904389308049" style="fill: none;" fill="none"></path></g><g><path stroke="rgb(0, 153, 136)" stroke-width="2px" d="M29.887500000000003,150.589549944951L34.86875,155.81633307383612L39.85,155.5005977337177L44.83125,155.3041840333205L49.8125,152.34723230508658L54.793749999999996,154.33800770686224L59.775000000000006,154.1937814125648L64.75625000000001,154.1578493118286L69.7375,153.1520514855018L74.71875,154.54253130692703L79.7,154.4756226172814L84.68124999999999,154.37932219872107L89.6625,155.74711891321036L94.64375,154.82447338104248L99.625,155.10996928581824L104.60624999999999,155.10509850428656L109.58749999999999,152.2259356425359L114.56875000000001,153.7717987207266L119.55000000000001,152.62647188626804L124.53125,153.0836144227248L129.51250000000002,153.0480607839731L134.49375,153.4026070374709L139.475,152.84610410837027L144.45625,151.73987990159253L149.4375,153.7471284866333L154.41875000000002,152.68118102733905L159.4,153.94032647059515L164.38125000000002,152.5482674378615L169.36249999999998,153.7695521574754L174.34375,148.68445220360388L179.325,151.99297009981595L184.30625,150.26745458749625L189.2875,152.87216311234693L194.26875,150.05898981827954L199.25,152.7774354494535L204.23125000000002,151.2659309093769L209.21249999999998,152.94408622154822L214.19375,151.52579791729266L219.17499999999998,153.42626696366528L224.15625,151.6627487035898L229.13750000000002,153.78175896864673L234.11875,153.76383649385892L239.10000000000002,152.56400629190298L244.08124999999998,150.40023099459134L249.0625,151.39048444307767L254.04375,152.1809898523184L259.02500000000003,151.38847673856296L264.00624999999997,152.6950969696045L268.9875,150.18449152432956L273.96875,153.48602360945483" style="fill: none;" fill="none"></path></g><g><path stroke="rgb(238, 51, 119)" stroke-width="2px" d="M29.887500000000003,135.98021448575534L34.86875,134.36700292734L39.85,133.10112263606146L44.83125,119.400327535776L49.8125,122.75923978365384L54.793749999999996,114.66262259850134L59.775000000000006,107.34815802940956L64.75625000000001,105.30430192213792L69.7375,103.83215742844801L74.71875,123.0678097651555L79.7,100.20263437124399L84.68124999999999,108.79933137160081L89.6625,125.20299060528095L94.64375,103.81233860896184L99.625,96.98796374981221L104.60624999999999,118.94734162550706L109.58749999999999,79.9362775362455L114.56875000000001,104.49031008206882L119.55000000000001,114.9983643751878L124.53125,98.93231259859525L129.51250000000002,73.69522798978366L134.49375,116.29323372474084L139.475,102.76662797194261L144.45625,98.73007026085487L149.4375,93.04144932673528L154.41875000000002,58.01287372295674L159.4,99.96162590613731L164.38125000000002,60.57376216008112L169.36249999999998,91.11719689002403L174.34375,28.80378136268027L179.325,75.87052741417519L184.30625,87.30936255821815L189.2875,107.95205747164212L194.26875,71.93805401141826L199.25,84.83326251690205L204.23125000000002,102.13546635554387L209.21249999999998,111.52297621506911L214.19375,111.82777610191933L219.17499999999998,121.97093816903921L224.15625,104.02313467172476L229.13750000000002,102.46629861684946L234.11875,98.18851294884315L239.10000000000002,104.88408484825722L244.08124999999998,76.93947190504808L249.0625,60.12995617206279L254.04375,73.88355196439304L259.02500000000003,72.08852210411659L264.00624999999997,111.10281401414137L268.9875,81.09060434194711L273.96875,95.39773911696214" style="fill: none;" fill="none"></path></g></g></g></g></g></g><g transform="translate(31, 176)" clip-path="url(#clip_1)"><clipPath id="clip_1"><rect width="298" height="23"></rect></clipPath><g><g><line x1="0" y1="0" x2="0" y2="5" style="visibility: inherit;" fill="rgb(0, 0, 0)" stroke="rgb(204, 204, 204)" stroke-width="1px"></line><line x1="24.90625" y1="0" x2="24.90625" y2="5" style="visibility: inherit;" fill="rgb(0, 0, 0)" stroke="rgb(204, 204, 204)" stroke-width="1px"></line><line x1="49.8125" y1="0" x2="49.8125" y2="5" style="visibility: inherit;" fill="rgb(0, 0, 0)" stroke="rgb(204, 204, 204)" stroke-width="1px"></line><line x1="74.71875" y1="0" x2="74.71875" y2="5" style="visibility: inherit;" fill="rgb(0, 0, 0)" stroke="rgb(204, 204, 204)" stroke-width="1px"></line><line x1="99.625" y1="0" x2="99.625" y2="5" style="visibility: inherit;" fill="rgb(0, 0, 0)" stroke="rgb(204, 204, 204)" stroke-width="1px"></line><line x1="124.53125" y1="0" x2="124.53125" y2="5" style="visibility: inherit;" fill="rgb(0, 0, 0)" stroke="rgb(204, 204, 204)" stroke-width="1px"></line><line x1="149.4375" y1="0" x2="149.4375" y2="5" style="visibility: inherit;" fill="rgb(0, 0, 0)" stroke="rgb(204, 204, 204)" stroke-width="1px"></line><line x1="174.34375" y1="0" x2="174.34375" y2="5" style="visibility: inherit;" fill="rgb(0, 0, 0)" stroke="rgb(204, 204, 204)" stroke-width="1px"></line><line x1="199.25" y1="0" x2="199.25" y2="5" style="visibility: inherit;" fill="rgb(0, 0, 0)" stroke="rgb(204, 204, 204)" stroke-width="1px"></line><line x1="224.15625" y1="0" x2="224.15625" y2="5" style="visibility: inherit;" fill="rgb(0, 0, 0)" stroke="rgb(204, 204, 204)" stroke-width="1px"></line><line x1="249.0625" y1="0" x2="249.0625" y2="5" style="visibility: inherit;" fill="rgb(0, 0, 0)" stroke="rgb(204, 204, 204)" stroke-width="1px"></line><line x1="273.96875" y1="0" x2="273.96875" y2="5" style="visibility: inherit;" fill="rgb(0, 0, 0)" stroke="rgb(204, 204, 204)" stroke-width="1px"></line><line x1="298.875" y1="0" x2="298.875" y2="5" style="visibility: inherit;" fill="rgb(0, 0, 0)" stroke="rgb(204, 204, 204)" stroke-width="1px"></line></g><g transform="translate(0, 8)"><text x="0" y="0" dx="0em" dy="0.95em" style="text-anchor: middle; visibility: hidden; font-family: &quot;Helvetica Neue&quot;, sans-serif; font-size: 12px; font-weight: 200;" fill="rgb(50, 49, 63)" stroke="none" stroke-width="1px">-1k</text><text x="24.90625" y="0" dx="0em" dy="0.95em" style="text-anchor: middle; visibility: inherit; font-family: &quot;Helvetica Neue&quot;, sans-serif; font-size: 12px; font-weight: 200;" fill="rgb(50, 49, 63)" stroke="none" stroke-width="1px">0</text><text x="49.8125" y="0" dx="0em" dy="0.95em" style="text-anchor: middle; visibility: inherit; font-family: &quot;Helvetica Neue&quot;, sans-serif; font-size: 12px; font-weight: 200;" fill="rgb(50, 49, 63)" stroke="none" stroke-width="1px">1k</text><text x="74.71875" y="0" dx="0em" dy="0.95em" style="text-anchor: middle; visibility: inherit; font-family: &quot;Helvetica Neue&quot;, sans-serif; font-size: 12px; font-weight: 200;" fill="rgb(50, 49, 63)" stroke="none" stroke-width="1px">2k</text><text x="99.625" y="0" dx="0em" dy="0.95em" style="text-anchor: middle; visibility: inherit; font-family: &quot;Helvetica Neue&quot;, sans-serif; font-size: 12px; font-weight: 200;" fill="rgb(50, 49, 63)" stroke="none" stroke-width="1px">3k</text><text x="124.53125" y="0" dx="0em" dy="0.95em" style="text-anchor: middle; visibility: inherit; font-family: &quot;Helvetica Neue&quot;, sans-serif; font-size: 12px; font-weight: 200;" fill="rgb(50, 49, 63)" stroke="none" stroke-width="1px">4k</text><text x="149.4375" y="0" dx="0em" dy="0.95em" style="text-anchor: middle; visibility: inherit; font-family: &quot;Helvetica Neue&quot;, sans-serif; font-size: 12px; font-weight: 200;" fill="rgb(50, 49, 63)" stroke="none" stroke-width="1px">5k</text><text x="174.34375" y="0" dx="0em" dy="0.95em" style="text-anchor: middle; visibility: inherit; font-family: &quot;Helvetica Neue&quot;, sans-serif; font-size: 12px; font-weight: 200;" fill="rgb(50, 49, 63)" stroke="none" stroke-width="1px">6k</text><text x="199.25" y="0" dx="0em" dy="0.95em" style="text-anchor: middle; visibility: inherit; font-family: &quot;Helvetica Neue&quot;, sans-serif; font-size: 12px; font-weight: 200;" fill="rgb(50, 49, 63)" stroke="none" stroke-width="1px">7k</text><text x="224.15625" y="0" dx="0em" dy="0.95em" style="text-anchor: middle; visibility: inherit; font-family: &quot;Helvetica Neue&quot;, sans-serif; font-size: 12px; font-weight: 200;" fill="rgb(50, 49, 63)" stroke="none" stroke-width="1px">8k</text><text x="249.0625" y="0" dx="0em" dy="0.95em" style="text-anchor: middle; visibility: inherit; font-family: &quot;Helvetica Neue&quot;, sans-serif; font-size: 12px; font-weight: 200;" fill="rgb(50, 49, 63)" stroke="none" stroke-width="1px">9k</text><text x="273.96875" y="0" dx="0em" dy="0.95em" style="text-anchor: middle; visibility: inherit; font-family: &quot;Helvetica Neue&quot;, sans-serif; font-size: 12px; font-weight: 200;" fill="rgb(50, 49, 63)" stroke="none" stroke-width="1px">10k</text><text x="298.875" y="0" dx="0em" dy="0.95em" style="text-anchor: middle; visibility: hidden; font-family: &quot;Helvetica Neue&quot;, sans-serif; font-size: 12px; font-weight: 200;" fill="rgb(50, 49, 63)" stroke="none" stroke-width="1px">11k</text></g><line x1="0" y1="0" x2="298.875" y2="0" fill="rgb(0, 0, 0)" stroke="rgb(204, 204, 204)" stroke-width="1px"></line></g></g></g></g></svg>