<svg viewBox="0 0 330 200" xmlns="http://www.w3.org/2000/svg"><g><g><g><g><g><line x1="52.25" y1="176" x2="47.25" y2="176" style="visibility: inherit;" fill="rgb(0, 0, 0)" stroke="rgb(204, 204, 204)" stroke-width="1px"></line><line x1="52.25" y1="162.46153846153845" x2="47.25" y2="162.46153846153845" style="visibility: inherit;" fill="rgb(0, 0, 0)" stroke="rgb(204, 204, 204)" stroke-width="1px"></line><line x1="52.25" y1="148.9230769230769" x2="47.25" y2="148.9230769230769" style="visibility: inherit;" fill="rgb(0, 0, 0)" stroke="rgb(204, 204, 204)" stroke-width="1px"></line><line x1="52.25" y1="135.3846153846154" x2="47.25" y2="135.3846153846154" style="visibility: inherit;" fill="rgb(0, 0, 0)" stroke="rgb(204, 204, 204)" stroke-width="1px"></line><line x1="52.25" y1="121.84615384615384" x2="47.25" y2="121.84615384615384" style="visibility: inherit;" fill="rgb(0, 0, 0)" stroke="rgb(204, 204, 204)" stroke-width="1px"></line><line x1="52.25" y1="108.30769230769232" x2="47.25" y2="108.30769230769232" style="visibility: inherit;" fill="rgb(0, 0, 0)" stroke="rgb(204, 204, 204)" stroke-width="1px"></line><line x1="52.25" y1="94.76923076923077" x2="47.25" y2="94.76923076923077" style="visibility: inherit;" fill="rgb(0, 0, 0)" stroke="rgb(204, 204, 204)" stroke-width="1px"></line><line x1="52.25" y1="81.23076923076924" x2="47.25" y2="81.23076923076924" style="visibility: inherit;" fill="rgb(0, 0, 0)" stroke="rgb(204, 204, 204)" stroke-width="1px"></line><line x1="52.25" y1="67.69230769230771" x2="47.25" y2="67.69230769230771" style="visibility: inherit;" fill="rgb(0, 0, 0)" stroke="rgb(204, 204, 204)" stroke-width="1px"></line><line x1="52.25" y1="54.15384615384616" x2="47.25" y2="54.15384615384616" style="visibility: inherit;" fill="rgb(0, 0, 0)" stroke="rgb(204, 204, 204)" stroke-width="1px"></line><line x1="52.25" y1="40.61538461538464" x2="47.25" y2="40.61538461538464" style="visibility: inherit;" fill="rgb(0, 0, 0)" stroke="rgb(204, 204, 204)" stroke-width="1px"></line><line x1="52.25" y1="27.076923076923066" x2="47.25" y2="27.076923076923066" style="visibility: inherit;" fill="rgb(0, 0, 0)" stroke="rgb(204, 204, 204)" stroke-width="1px"></line><line x1="52.25" y1="13.538461538461519" x2="47.25" y2="13.538461538461519" style="visibility: inherit;" fill="rgb(0, 0, 0)" stroke="rgb(204, 204, 204)" stroke-width="1px"></line><line x1="52.25" y1="0" x2="47.25" y2="0" style="visibility: inherit;" fill="rgb(0, 0, 0)" stroke="rgb(204, 204, 204)" stroke-width="1px"></line></g><g transform="translate(42.25, 0)"><text x="0" y="176" dx="0em" dy="0.3em" style="text-anchor: end; visibility: hidden; font-family: &quot;Helvetica Neue&quot;, sans-serif; font-size: 12px; font-weight: 200;" fill="rgb(50, 49, 63)" stroke="none" stroke-width="1px">-0.1</text><text x="0" y="162.46153846153845" dx="0em" dy="0.3em" style="text-anchor: end; visibility: inherit; font-family: &quot;Helvetica Neue&quot;, sans-serif; font-size: 12px; font-weight: 200;" fill="rgb(50, 49, 63)" stroke="none" stroke-width="1px">0</text><text x="0" y="148.9230769230769" dx="0em" dy="0.3em" style="text-anchor: end; visibility: hidden; font-family: &quot;Helvetica Neue&quot;, sans-serif; font-size: 12px; font-weight: 200;" fill="rgb(50, 49, 63)" stroke="none" stroke-width="1px">0.1</text><text x="0" y="135.3846153846154" dx="0em" dy="0.3em" style="text-anchor: end; visibility: inherit; font-family: &quot;Helvetica Neue&quot;, sans-serif; font-size: 12px; font-weight: 200;" fill="rgb(50, 49, 63)" stroke="none" stroke-width="1px">0.2</text><text x="0" y="121.84615384615384" dx="0em" dy="0.3em" style="text-anchor: end; visibility: hidden; font-family: &quot;Helvetica Neue&quot;, sans-serif; font-size: 12px; font-weight: 200;" fill="rgb(50, 49, 63)" stroke="none" stroke-width="1px">0.3</text><text x="0" y="108.30769230769232" dx="0em" dy="0.3em" style="text-anchor: end; visibility: inherit; font-family: &quot;Helvetica Neue&quot;, sans-serif; font-size: 12px; font-weight: 200;" fill="rgb(50, 49, 63)" stroke="none" stroke-width="1px">0.4</text><text x="0" y="94.76923076923077" dx="0em" dy="0.3em" style="text-anchor: end; visibility: hidden; font-family: &quot;Helvetica Neue&quot;, sans-serif; font-size: 12px; font-weight: 200;" fill="rgb(50, 49, 63)" stroke="none" stroke-width="1px">0.5</text><text x="0" y="81.23076923076924" dx="0em" dy="0.3em" style="text-anchor: end; visibility: inherit; font-family: &quot;Helvetica Neue&quot;, sans-serif; font-size: 12px; font-weight: 200;" fill="rgb(50, 49, 63)" stroke="none" stroke-width="1px">0.6</text><text x="0" y="67.69230769230771" dx="0em" dy="0.3em" style="text-anchor: end; visibility: hidden; font-family: &quot;Helvetica Neue&quot;, sans-serif; font-size: 12px; font-weight: 200;" fill="rgb(50, 49, 63)" stroke="none" stroke-width="1px">0.7</text><text x="0" y="54.15384615384616" dx="0em" dy="0.3em" style="text-anchor: end; visibility: inherit; font-family: &quot;Helvetica Neue&quot;, sans-serif; font-size: 12px; font-weight: 200;" fill="rgb(50, 49, 63)" stroke="none" stroke-width="1px">0.8</text><text x="0" y="40.61538461538464" dx="0em" dy="0.3em" style="text-anchor: end; visibility: hidden; font-family: &quot;Helvetica Neue&quot;, sans-serif; font-size: 12px; font-weight: 200;" fill="rgb(50, 49, 63)" stroke="none" stroke-width="1px">0.9</text><text x="0" y="27.076923076923066" dx="0em" dy="0.3em" style="text-anchor: end; visibility: inherit; font-family: &quot;Helvetica Neue&quot;, sans-serif; font-size: 12px; font-weight: 200;" fill="rgb(50, 49, 63)" stroke="none" stroke-width="1px">1</text><text x="0" y="13.538461538461519" dx="0em" dy="0.3em" style="text-anchor: end; visibility: hidden; font-family: &quot;Helvetica Neue&quot;, sans-serif; font-size: 12px; font-weight: 200;" fill="rgb(50, 49, 63)" stroke="none" stroke-width="1px">1.1</text><text x="0" y="0" dx="0em" dy="0.3em" style="text-anchor: end; visibility: hidden; font-family: &quot;Helvetica Neue&quot;, sans-serif; font-size: 12px; font-weight: 200;" fill="rgb(50, 49, 63)" stroke="none" stroke-width="1px">1.2</text></g><line x1="52.25" y1="0" x2="52.25" y2="176" fill="rgb(0, 0, 0)" stroke="rgb(204, 204, 204)" stroke-width="1px"></line></g></g><g transform="translate(52, 0)" clip-path="url(#clip_0)"><clipPath id="clip_0"><rect width="277" height="175"></rect></clipPath><g><g><g><line x1="0" y1="0" x2="0" y2="176" fill="rgb(0, 0, 0)" stroke="rgb(60, 60, 60)" stroke-width="1px" opacity="0.25"></line><line x1="23.145833333333332" y1="0" x2="23.145833333333332" y2="176" fill="rgb(0, 0, 0)" stroke="rgb(60, 60, 60)" stroke-width="1px" opacity="0.25"></line><line x1="46.291666666666664" y1="0" x2="46.291666666666664" y2="176" fill="rgb(0, 0, 0)" stroke="rgb(60, 60, 60)" stroke-width="1px" opacity="0.25"></line><line x1="69.4375" y1="0" x2="69.4375" y2="176" fill="rgb(0, 0, 0)" stroke="rgb(60, 60, 60)" stroke-width="1px" opacity="0.25"></line><line x1="92.58333333333333" y1="0" x2="92.58333333333333" y2="176" fill="rgb(0, 0, 0)" stroke="rgb(60, 60, 60)" stroke-width="1px" opacity="0.25"></line><line x1="115.72916666666667" y1="0" x2="115.72916666666667" y2="176" fill="rgb(0, 0, 0)" stroke="rgb(60, 60, 60)" stroke-width="1px" opacity="0.25"></line><line x1="138.875" y1="0" x2="138.875" y2="176" fill="rgb(0, 0, 0)" stroke="rgb(60, 60, 60)" stroke-width="1px" opacity="0.25"></line><line x1="162.02083333333334" y1="0" x2="162.02083333333334" y2="176" fill="rgb(0, 0, 0)" stroke="rgb(60, 60, 60)" stroke-width="1px" opacity="0.25"></line><line x1="185.16666666666666" y1="0" x2="185.16666666666666" y2="176" fill="rgb(0, 0, 0)" stroke="rgb(60, 60, 60)" stroke-width="1px" opacity="0.25"></line><line x1="208.3125" y1="0" x2="208.3125" y2="176" fill="rgb(0, 0, 0)" stroke="rgb(60, 60, 60)" stroke-width="1px" opacity="0.25"></line><line x1="231.45833333333334" y1="0" x2="231.45833333333334" y2="176" fill="rgb(0, 0, 0)" stroke="rgb(60, 60, 60)" stroke-width="1px" opacity="0.25"></line><line x1="254.60416666666666" y1="0" x2="254.60416666666666" y2="176" fill="rgb(0, 0, 0)" stroke="rgb(60, 60, 60)" stroke-width="1px" opacity="0.25"></line><line x1="277.75" y1="0" x2="277.75" y2="176" fill="rgb(0, 0, 0)" stroke="rgb(60, 60, 60)" stroke-width="1px" opacity="0.25"></line></g><g><line x1="0" y1="176" x2="277.75" y2="176" fill="rgb(0, 0, 0)" stroke="rgb(60, 60, 60)" stroke-width="1px" opacity="0.25"></line><line x1="0" y1="162.46153846153845" x2="277.75" y2="162.46153846153845" fill="rgb(0, 0, 0)" stroke="rgb(60, 60, 60)" stroke-width="1px" opacity="0.25"></line><line x1="0" y1="148.9230769230769" x2="277.75" y2="148.9230769230769" fill="rgb(0, 0, 0)" stroke="rgb(60, 60, 60)" stroke-width="1px" opacity="0.25"></line><line x1="0" y1="135.3846153846154" x2="277.75" y2="135.3846153846154" fill="rgb(0, 0, 0)" stroke="rgb(60, 60, 60)" stroke-width="1px" opacity="0.25"></line><line x1="0" y1="121.84615384615384" x2="277.75" y2="121.84615384615384" fill="rgb(0, 0, 0)" stroke="rgb(60, 60, 60)" stroke-width="1px" opacity="0.25"></line><line x1="0" y1="108.30769230769232" x2="277.75" y2="108.30769230769232" fill="rgb(0, 0, 0)" stroke="rgb(60, 60, 60)" stroke-width="1px" opacity="0.25"></line><line x1="0" y1="94.76923076923077" x2="277.75" y2="94.76923076923077" fill="rgb(0, 0, 0)" stroke="rgb(60, 60, 60)" stroke-width="1px" opacity="0.25"></line><line x1="0" y1="81.23076923076924" x2="277.75" y2="81.23076923076924" fill="rgb(0, 0, 0)" stroke="rgb(60, 60, 60)" stroke-width="1px" opacity="0.25"></line><line x1="0" y1="67.69230769230771" x2="277.75" y2="67.69230769230771" fill="rgb(0, 0, 0)" stroke="rgb(60, 60, 60)" stroke-width="1px" opacity="0.25"></line><line x1="0" y1="54.15384615384616" x2="277.75" y2="54.15384615384616" fill="rgb(0, 0, 0)" stroke="rgb(60, 60, 60)" stroke-width="1px" opacity="0.25"></line><line x1="0" y1="40.61538461538464" x2="277.75" y2="40.61538461538464" fill="rgb(0, 0, 0)" stroke="rgb(60, 60, 60)" stroke-width="1px" opacity="0.25"></line><line x1="0" y1="27.076923076923066" x2="277.75" y2="27.076923076923066" fill="rgb(0, 0, 0)" stroke="rgb(60, 60, 60)" stroke-width="1px" opacity="0.25"></line><line x1="0" y1="13.538461538461519" x2="277.75" y2="13.538461538461519" fill="rgb(0, 0, 0)" stroke="rgb(60, 60, 60)" stroke-width="1px" opacity="0.25"></line><line x1="0" y1="0" x2="277.75" y2="0" fill="rgb(0, 0, 0)" stroke="rgb(60, 60, 60)" stroke-width="1px" opacity="0.25"></line></g></g></g><g><g><line x1="0" y1="162.46153846153845" x2="277.75" y2="162.46153846153845" fill="rgb(0, 0, 0)" stroke="rgb(153, 153, 153)" stroke-width="1.5px"></line></g></g><g><g><line x1="23.145833333333332" y1="0" x2="23.145833333333332" y2="176" fill="rgb(0, 0, 0)" stroke="rgb(153, 153, 153)" stroke-width="1.5px"></line></g></g><g><g><g><g><g><path stroke="rgb(255, 112, 67)" stroke-width="2px" d="M27.775000000000002,58.136410493117125L32.40416666666667,41.94441076425406L37.03333333333333,38.758358001708984L41.6625,36.8020484630878L46.291666666666664,35.39856778658353L50.92083333333333,34.58174353379471L55.550000000000004,33.780719463641816L60.17916666666667,33.36328154343826L64.80833333333334,32.632204349224395L69.4375,32.03651002737192L74.06666666666666,31.282870366023133L78.69583333333333,30.799996449397156L83.325,30.612718288715058L87.95416666666667,30.14564455472504L92.58333333333333,30.01477256188025L97.21249999999999,29.924514623788667L101.84166666666665,29.558971991905793L106.47083333333335,29.209229542658875L111.10000000000001,29.13702319218561L115.72916666666667,28.992618560791016L120.35833333333333,28.78502933795636L124.9875,28.78051038888782L129.61666666666667,28.688001045813905L134.24583333333334,28.56163993248572L138.875,28.45784935584433L143.5041666666667,28.311177180363586L148.13333333333333,28.227689596322847L152.76250000000002,28.24123030442459L157.39166666666665,28.148720961350648L162.02083333333334,28.202875724205597L166.65,28.227689596322847L171.27916666666667,28.049433194673952L175.90833333333333,27.981745793269226L180.5375,27.93887226398175L185.16666666666666,27.895998734694246L189.79583333333335,27.93661278944748L194.42499999999998,27.85538467994101L199.05416666666667,27.814770625187805L203.6833333333333,27.916309796846804L208.3125,27.925331555880007L212.9416666666667,27.868925388042754L217.57083333333333,27.74256427471454L222.20000000000002,27.780926924485414L226.82916666666665,27.846362920907808L231.45833333333334,27.738053395197937L236.0875,27.85764415447528L240.71666666666667,27.733534446129426L245.34583333333333,27.66358757019043L249.975,27.55302663949817L254.60416666666666,27.519182938795808" style="fill: none;" fill="none"></path></g><g><path stroke="rgb(187, 187, 187)" stroke-width="2px" d="M27.775000000000002,88.93265298696664L32.40416666666667,55.161707364595856L37.03333333333333,49.204788354726944L41.6625,50.182567889873795L46.291666666666664,54.39452699514537L50.92083333333333,52.64957516009993L55.550000000000004,43.488543730515715L60.17916666666667,46.64752314640927L64.80833333333334,46.828030953040496L69.4375,44.78222201420712L74.06666666666666,47.56512803297775L78.69583333333333,50.96478990408092L83.325,43.15760333721454L87.95416666666667,42.82666294391339L92.58333333333333,43.02222046485315L97.21249999999999,40.32957238417404L101.84166666666665,43.202736341036285L106.47083333333335,41.86393312307507L111.10000000000001,41.33743520883414L115.72916666666667,42.36033967825085L120.35833333333333,40.99145317077637L124.9875,41.187010691716125L129.61666666666667,42.20991516113281L134.24583333333334,43.8796587723952L138.875,41.96923270592325L143.5041666666667,42.224956805889434L148.13333333333333,42.31521474398102L152.76250000000002,38.97572752145618L157.39166666666665,41.126836043137786L162.02083333333334,42.42051432682919L166.65,40.31453073941742L171.27916666666667,40.690596066988434L175.90833333333333,38.64478712815506L180.5375,41.126836043137786L185.16666666666666,40.44991361177884L189.79583333333335,42.089573933528015L194.42499999999998,39.66769159757172L199.05416666666667,39.69777488708496L203.6833333333333,39.47213407663196L208.3125,39.71281653184158L212.9416666666667,39.035894100482636L217.57083333333333,38.90051122812122L222.20000000000002,40.38974703275238L226.82916666666665,38.73504506624661L231.45833333333334,38.960685876699586L236.0875,39.035894100482636L240.71666666666667,39.32170955951398L245.34583333333333,40.404788677509L249.975,43.09743675818811L254.60416666666666,38.90051122812122" style="fill: none;" fill="none"></path></g><g><path stroke="rgb(0, 153, 136)" stroke-width="2px" d="M27.775000000000002,62.68307847243089L32.40416666666667,47.71555255009579L37.03333333333333,46.196241525503325L41.6625,45.80512648362381L46.291666666666664,49.76136955848108L50.92083333333333,46.602390142587524L55.550000000000004,45.2786285693829L60.17916666666667,46.602390142587524L64.80833333333334,47.083763122558594L69.4375,45.429061156052825L74.06666666666666,45.76000154935397L78.69583333333333,46.39179097689117L83.325,41.29231027456433L87.95416666666667,41.27726862980771L92.58333333333333,40.765812360323395L97.21249999999999,41.47281808119553L101.84166666666665,43.59384331336389L106.47083333333335,41.84889147831845L111.10000000000001,41.72855025071365L115.72916666666667,41.17196904695953L120.35833333333333,41.38256014310397L124.9875,42.07453228877142L129.61666666666667,43.17265305152307L134.24583333333334,46.36170768737793L138.875,42.11965722304123L143.5041666666667,43.68410125145547L148.13333333333333,42.33025638873761L152.76250000000002,41.62325066786545L157.39166666666665,40.66051277747522L162.02083333333334,44.7671803694505L166.65,42.856754302978516L171.27916666666667,44.19555752093976L175.90833333333333,41.33743520883414L180.5375,44.54153955899753L185.16666666666666,41.35247685359076L189.79583333333335,42.36033967825085L194.42499999999998,40.57025483938364L199.05416666666667,41.96923270592325L203.6833333333333,40.38974703275238L208.3125,41.743591895470274L212.9416666666667,39.06598545954776L217.57083333333333,39.517267080453706L222.20000000000002,41.02153646028961L226.82916666666665,41.66837560213531L231.45833333333334,41.83384983356183L236.0875,40.79589564983661L240.71666666666667,42.42051432682919L245.34583333333333,39.98359034611627L249.975,44.42119833139273L254.60416666666666,39.60752501854529" style="fill: none;" fill="none"></path></g><g><path stroke="rgb(238, 51, 119)" stroke-width="2px" d="M27.775000000000002,93.62598507220929L32.40416666666667,90.31658113919772L37.03333333333333,90.12102361825796L41.6625,95.14530013157771L46.291666666666664,91.79076722952036L50.92083333333333,92.13674926757814L55.550000000000004,95.43111155583308L60.17916666666667,92.58803088848408L64.80833333333334,91.80580887427698L69.4375,86.90187762333798L74.06666666666666,96.58940293238715L78.69583333333333,95.3107703282283L83.325,75.36410493117113L87.95416666666667,85.18700907780575L92.58333333333333,86.84171104431152L97.21249999999999,74.10050993699294L101.84166666666665,90.52718030489409L106.47083333333335,81.95282143812913L111.10000000000001,74.41640868553749L115.72916666666667,78.38769340515137L120.35833333333333,90.90324563246507L124.9875,79.81675456120419L129.61666666666667,81.81743856576773L134.24583333333334,90.61743824298566L138.875,87.77435757563666L143.5041666666667,101.44820521428035L148.13333333333333,88.19555590702937L152.76250000000002,96.07795069767879L157.39166666666665,79.86187949547401L162.02083333333334,103.3736769602849L166.65,85.69846534729004L171.27916666666667,77.2745309976431L175.90833333333333,73.5288870884822L180.5375,88.6167542384221L185.16666666666666,84.17914625314566L189.79583333333335,76.71794979388899L194.42499999999998,71.22735404968262L199.05416666666667,70.71589778019833L203.6833333333333,67.15076974722056L208.3125,75.49948780353255L212.9416666666667,73.15282176091122L217.57083333333333,74.16068458557129L222.20000000000002,73.76956954369179L226.82916666666665,78.85401667081393L231.45833333333334,85.95418944725624L236.0875,77.18427305955153L240.71666666666667,83.14120013897237L245.34583333333333,65.96239104637733L249.975,81.14051613440881L254.60416666666666,76.17641023489146" style="fill: none;" fill="none"></path></g></g></g></g></g></g><g transform="translate(52, 176)" clip-path="url(#clip_1)"><clipPath id="clip_1"><rect width="277" height="23"></rect></clipPath><g><g><line x1="0" y1="0" x2="0" y2="5" style="visibility: inherit;" fill="rgb(0, 0, 0)" stroke="rgb(204, 204, 204)" stroke-width="1px"></line><line x1="23.145833333333332" y1="0" x2="23.145833333333332" y2="5" style="visibility: inherit;" fill="rgb(0, 0, 0)" stroke="rgb(204, 204, 204)" stroke-width="1px"></line><line x1="46.291666666666664" y1="0" x2="46.291666666666664" y2="5" style="visibility: inherit;" fill="rgb(0, 0, 0)" stroke="rgb(204, 204, 204)" stroke-width="1px"></line><line x1="69.4375" y1="0" x2="69.4375" y2="5" style="visibility: inherit;" fill="rgb(0, 0, 0)" stroke="rgb(204, 204, 204)" stroke-width="1px"></line><line x1="92.58333333333333" y1="0" x2="92.58333333333333" y2="5" style="visibility: inherit;" fill="rgb(0, 0, 0)" stroke="rgb(204, 204, 204)" stroke-width="1px"></line><line x1="115.72916666666667" y1="0" x2="115.72916666666667" y2="5" style="visibility: inherit;" fill="rgb(0, 0, 0)" stroke="rgb(204, 204, 204)" stroke-width="1px"></line><line x1="138.875" y1="0" x2="138.875" y2="5" style="visibility: inherit;" fill="rgb(0, 0, 0)" stroke="rgb(204, 204, 204)" stroke-width="1px"></line><line x1="162.02083333333334" y1="0" x2="162.02083333333334" y2="5" style="visibility: inherit;" fill="rgb(0, 0, 0)" stroke="rgb(204, 204, 204)" stroke-width="1px"></line><line x1="185.16666666666666" y1="0" x2="185.16666666666666" y2="5" style="visibility: inherit;" fill="rgb(0, 0, 0)" stroke="rgb(204, 204, 204)" stroke-width="1px"></line><line x1="208.3125" y1="0" x2="208.3125" y2="5" style="visibility: inherit;" fill="rgb(0, 0, 0)" stroke="rgb(204, 204, 204)" stroke-width="1px"></line><line x1="231.45833333333334" y1="0" x2="231.45833333333334" y2="5" style="visibility: inherit;" fill="rgb(0, 0, 0)" stroke="rgb(204, 204, 204)" stroke-width="1px"></line><line x1="254.60416666666666" y1="0" x2="254.60416666666666" y2="5" style="visibility: inherit;" fill="rgb(0, 0, 0)" stroke="rgb(204, 204, 204)" stroke-width="1px"></line><line x1="277.75" y1="0" x2="277.75" y2="5" style="visibility: inherit;" fill="rgb(0, 0, 0)" stroke="rgb(204, 204, 204)" stroke-width="1px"></line></g><g transform="translate(0, 8)"><text x="0" y="0" dx="0em" dy="0.95em" style="text-anchor: middle; visibility: hidden; font-family: &quot;Helvetica Neue&quot;, sans-serif; font-size: 12px; font-weight: 200;" fill="rgb(50, 49, 63)" stroke="none" stroke-width="1px">-1k</text><text x="23.145833333333332" y="0" dx="0em" dy="0.95em" style="text-anchor: middle; visibility: inherit; font-family: &quot;Helvetica Neue&quot;, sans-serif; font-size: 12px; font-weight: 200;" fill="rgb(50, 49, 63)" stroke="none" stroke-width="1px">0</text><text x="46.291666666666664" y="0" dx="0em" dy="0.95em" style="text-anchor: middle; visibility: inherit; font-family: &quot;Helvetica Neue&quot;, sans-serif; font-size: 12px; font-weight: 200;" fill="rgb(50, 49, 63)" stroke="none" stroke-width="1px">1k</text><text x="69.4375" y="0" dx="0em" dy="0.95em" style="text-anchor: middle; visibility: inherit; font-family: &quot;Helvetica Neue&quot;, sans-serif; font-size: 12px; font-weight: 200;" fill="rgb(50, 49, 63)" stroke="none" stroke-width="1px">2k</text><text x="92.58333333333333" y="0" dx="0em" dy="0.95em" style="text-anchor: middle; visibility: inherit; font-family: &quot;Helvetica Neue&quot;, sans-serif; font-size: 12px; font-weight: 200;" fill="rgb(50, 49, 63)" stroke="none" stroke-width="1px">3k</text><text x="115.72916666666667" y="0" dx="0em" dy="0.95em" style="text-anchor: middle; visibility: inherit; font-family: &quot;Helvetica Neue&quot;, sans-serif; font-size: 12px; font-weight: 200;" fill="rgb(50, 49, 63)" stroke="none" stroke-width="1px">4k</text><text x="138.875" y="0" dx="0em" dy="0.95em" style="text-anchor: middle; visibility: inherit; font-family: &quot;Helvetica Neue&quot;, sans-serif; font-size: 12px; font-weight: 200;" fill="rgb(50, 49, 63)" stroke="none" stroke-width="1px">5k</text><text x="162.02083333333334" y="0" dx="0em" dy="0.95em" style="text-anchor: middle; visibility: inherit; font-family: &quot;Helvetica Neue&quot;, sans-serif; font-size: 12px; font-weight: 200;" fill="rgb(50, 49, 63)" stroke="none" stroke-width="1px">6k</text><text x="185.16666666666666" y="0" dx="0em" dy="0.95em" style="text-anchor: middle; visibility: inherit; font-family: &quot;Helvetica Neue&quot;, sans-serif; font-size: 12px; font-weight: 200;" fill="rgb(50, 49, 63)" stroke="none" stroke-width="1px">7k</text><text x="208.3125" y="0" dx="0em" dy="0.95em" style="text-anchor: middle; visibility: inherit; font-family: &quot;Helvetica Neue&quot;, sans-serif; font-size: 12px; font-weight: 200;" fill="rgb(50, 49, 63)" stroke="none" stroke-width="1px">8k</text><text x="231.45833333333334" y="0" dx="0em" dy="0.95em" style="text-anchor: middle; visibility: inherit; font-family: &quot;Helvetica Neue&quot;, sans-serif; font-size: 12px; font-weight: 200;" fill="rgb(50, 49, 63)" stroke="none" stroke-width="1px">9k</text><text x="254.60416666666666" y="0" dx="0em" dy="0.95em" style="text-anchor: middle; visibility: inherit; font-family: &quot;Helvetica Neue&quot;, sans-serif; font-size: 12px; font-weight: 200;" fill="rgb(50, 49, 63)" stroke="none" stroke-width="1px">10k</text><text x="277.75" y="0" dx="0em" dy="0.95em" style="text-anchor: middle; visibility: hidden; font-family: &quot;Helvetica Neue&quot;, sans-serif; font-size: 12px; font-weight: 200;" fill="rgb(50, 49, 63)" stroke="none" stroke-width="1px">11k</text></g><line x1="0" y1="0" x2="277.75" y2="0" fill="rgb(0, 0, 0)" stroke="rgb(204, 204, 204)" stroke-width="1px"></line></g></g></g></g></svg>