<svg viewBox="0 0 330 200" xmlns="http://www.w3.org/2000/svg"><g><g><g><g><g><line x1="52.25" y1="176" x2="47.25" y2="176" style="visibility: inherit;" fill="rgb(0, 0, 0)" stroke="rgb(204, 204, 204)" stroke-width="1px"></line><line x1="52.25" y1="164.26666666666668" x2="47.25" y2="164.26666666666668" style="visibility: inherit;" fill="rgb(0, 0, 0)" stroke="rgb(204, 204, 204)" stroke-width="1px"></line><line x1="52.25" y1="152.53333333333333" x2="47.25" y2="152.53333333333333" style="visibility: inherit;" fill="rgb(0, 0, 0)" stroke="rgb(204, 204, 204)" stroke-width="1px"></line><line x1="52.25" y1="140.79999999999998" x2="47.25" y2="140.79999999999998" style="visibility: inherit;" fill="rgb(0, 0, 0)" stroke="rgb(204, 204, 204)" stroke-width="1px"></line><line x1="52.25" y1="129.06666666666666" x2="47.25" y2="129.06666666666666" style="visibility: inherit;" fill="rgb(0, 0, 0)" stroke="rgb(204, 204, 204)" stroke-width="1px"></line><line x1="52.25" y1="117.33333333333334" x2="47.25" y2="117.33333333333334" style="visibility: inherit;" fill="rgb(0, 0, 0)" stroke="rgb(204, 204, 204)" stroke-width="1px"></line><line x1="52.25" y1="105.59999999999998" x2="47.25" y2="105.59999999999998" style="visibility: inherit;" fill="rgb(0, 0, 0)" stroke="rgb(204, 204, 204)" stroke-width="1px"></line><line x1="52.25" y1="93.86666666666667" x2="47.25" y2="93.86666666666667" style="visibility: inherit;" fill="rgb(0, 0, 0)" stroke="rgb(204, 204, 204)" stroke-width="1px"></line><line x1="52.25" y1="82.13333333333334" x2="47.25" y2="82.13333333333334" style="visibility: inherit;" fill="rgb(0, 0, 0)" stroke="rgb(204, 204, 204)" stroke-width="1px"></line><line x1="52.25" y1="70.4" x2="47.25" y2="70.4" style="visibility: inherit;" fill="rgb(0, 0, 0)" stroke="rgb(204, 204, 204)" stroke-width="1px"></line><line x1="52.25" y1="58.66666666666667" x2="47.25" y2="58.66666666666667" style="visibility: inherit;" fill="rgb(0, 0, 0)" stroke="rgb(204, 204, 204)" stroke-width="1px"></line><line x1="52.25" y1="46.93333333333334" x2="47.25" y2="46.93333333333334" style="visibility: inherit;" fill="rgb(0, 0, 0)" stroke="rgb(204, 204, 204)" stroke-width="1px"></line><line x1="52.25" y1="35.20000000000002" x2="47.25" y2="35.20000000000002" style="visibility: inherit;" fill="rgb(0, 0, 0)" stroke="rgb(204, 204, 204)" stroke-width="1px"></line><line x1="52.25" y1="23.46666666666667" x2="47.25" y2="23.46666666666667" style="visibility: inherit;" fill="rgb(0, 0, 0)" stroke="rgb(204, 204, 204)" stroke-width="1px"></line><line x1="52.25" y1="11.733333333333348" x2="47.25" y2="11.733333333333348" style="visibility: inherit;" fill="rgb(0, 0, 0)" stroke="rgb(204, 204, 204)" stroke-width="1px"></line><line x1="52.25" y1="0" x2="47.25" y2="0" style="visibility: inherit;" fill="rgb(0, 0, 0)" stroke="rgb(204, 204, 204)" stroke-width="1px"></line></g><g transform="translate(42.25, 0)"><text x="0" y="176" dx="0em" dy="0.3em" style="text-anchor: end; visibility: hidden; font-family: &quot;Helvetica Neue&quot;, sans-serif; font-size: 12px; font-weight: 200;" fill="rgb(50, 49, 63)" stroke="none" stroke-width="1px">-0.4</text><text x="0" y="164.26666666666668" dx="0em" dy="0.3em" style="text-anchor: end; visibility: inherit; font-family: &quot;Helvetica Neue&quot;, sans-serif; font-size: 12px; font-weight: 200;" fill="rgb(50, 49, 63)" stroke="none" stroke-width="1px">-0.2</text><text x="0" y="152.53333333333333" dx="0em" dy="0.3em" style="text-anchor: end; visibility: hidden; font-family: &quot;Helvetica Neue&quot;, sans-serif; font-size: 12px; font-weight: 200;" fill="rgb(50, 49, 63)" stroke="none" stroke-width="1px">0</text><text x="0" y="140.79999999999998" dx="0em" dy="0.3em" style="text-anchor: end; visibility: hidden; font-family: &quot;Helvetica Neue&quot;, sans-serif; font-size: 12px; font-weight: 200;" fill="rgb(50, 49, 63)" stroke="none" stroke-width="1px">0.2</text><text x="0" y="129.06666666666666" dx="0em" dy="0.3em" style="text-anchor: end; visibility: inherit; font-family: &quot;Helvetica Neue&quot;, sans-serif; font-size: 12px; font-weight: 200;" fill="rgb(50, 49, 63)" stroke="none" stroke-width="1px">0.4</text><text x="0" y="117.33333333333334" dx="0em" dy="0.3em" style="text-anchor: end; visibility: hidden; font-family: &quot;Helvetica Neue&quot;, sans-serif; font-size: 12px; font-weight: 200;" fill="rgb(50, 49, 63)" stroke="none" stroke-width="1px">0.6</text><text x="0" y="105.59999999999998" dx="0em" dy="0.3em" style="text-anchor: end; visibility: hidden; font-family: &quot;Helvetica Neue&quot;, sans-serif; font-size: 12px; font-weight: 200;" fill="rgb(50, 49, 63)" stroke="none" stroke-width="1px">0.8</text><text x="0" y="93.86666666666667" dx="0em" dy="0.3em" style="text-anchor: end; visibility: inherit; font-family: &quot;Helvetica Neue&quot;, sans-serif; font-size: 12px; font-weight: 200;" fill="rgb(50, 49, 63)" stroke="none" stroke-width="1px">1</text><text x="0" y="82.13333333333334" dx="0em" dy="0.3em" style="text-anchor: end; visibility: hidden; font-family: &quot;Helvetica Neue&quot;, sans-serif; font-size: 12px; font-weight: 200;" fill="rgb(50, 49, 63)" stroke="none" stroke-width="1px">1.2</text><text x="0" y="70.4" dx="0em" dy="0.3em" style="text-anchor: end; visibility: hidden; font-family: &quot;Helvetica Neue&quot;, sans-serif; font-size: 12px; font-weight: 200;" fill="rgb(50, 49, 63)" stroke="none" stroke-width="1px">1.4</text><text x="0" y="58.66666666666667" dx="0em" dy="0.3em" style="text-anchor: end; visibility: inherit; font-family: &quot;Helvetica Neue&quot;, sans-serif; font-size: 12px; font-weight: 200;" fill="rgb(50, 49, 63)" stroke="none" stroke-width="1px">1.6</text><text x="0" y="46.93333333333334" dx="0em" dy="0.3em" style="text-anchor: end; visibility: hidden; font-family: &quot;Helvetica Neue&quot;, sans-serif; font-size: 12px; font-weight: 200;" fill="rgb(50, 49, 63)" stroke="none" stroke-width="1px">1.8</text><text x="0" y="35.20000000000002" dx="0em" dy="0.3em" style="text-anchor: end; visibility: hidden; font-family: &quot;Helvetica Neue&quot;, sans-serif; font-size: 12px; font-weight: 200;" fill="rgb(50, 49, 63)" stroke="none" stroke-width="1px">2</text><text x="0" y="23.46666666666667" dx="0em" dy="0.3em" style="text-anchor: end; visibility: inherit; font-family: &quot;Helvetica Neue&quot;, sans-serif; font-size: 12px; font-weight: 200;" fill="rgb(50, 49, 63)" stroke="none" stroke-width="1px">2.2</text><text x="0" y="11.733333333333348" dx="0em" dy="0.3em" style="text-anchor: end; visibility: hidden; font-family: &quot;Helvetica Neue&quot;, sans-serif; font-size: 12px; font-weight: 200;" fill="rgb(50, 49, 63)" stroke="none" stroke-width="1px">2.4</text><text x="0" y="0" dx="0em" dy="0.3em" style="text-anchor: end; visibility: hidden; font-family: &quot;Helvetica Neue&quot;, sans-serif; font-size: 12px; font-weight: 200;" fill="rgb(50, 49, 63)" stroke="none" stroke-width="1px">2.6</text></g><line x1="52.25" y1="0" x2="52.25" y2="176" fill="rgb(0, 0, 0)" stroke="rgb(204, 204, 204)" stroke-width="1px"></line></g></g><g transform="translate(52, 0)" clip-path="url(#clip_0)"><clipPath id="clip_0"><rect width="277" height="175"></rect></clipPath><g><g><g><line x1="0" y1="0" x2="0" y2="176" fill="rgb(0, 0, 0)" stroke="rgb(60, 60, 60)" stroke-width="1px" opacity="0.25"></line><line x1="23.145833333333332" y1="0" x2="23.145833333333332" y2="176" fill="rgb(0, 0, 0)" stroke="rgb(60, 60, 60)" stroke-width="1px" opacity="0.25"></line><line x1="46.291666666666664" y1="0" x2="46.291666666666664" y2="176" fill="rgb(0, 0, 0)" stroke="rgb(60, 60, 60)" stroke-width="1px" opacity="0.25"></line><line x1="69.4375" y1="0" x2="69.4375" y2="176" fill="rgb(0, 0, 0)" stroke="rgb(60, 60, 60)" stroke-width="1px" opacity="0.25"></line><line x1="92.58333333333333" y1="0" x2="92.58333333333333" y2="176" fill="rgb(0, 0, 0)" stroke="rgb(60, 60, 60)" stroke-width="1px" opacity="0.25"></line><line x1="115.72916666666667" y1="0" x2="115.72916666666667" y2="176" fill="rgb(0, 0, 0)" stroke="rgb(60, 60, 60)" stroke-width="1px" opacity="0.25"></line><line x1="138.875" y1="0" x2="138.875" y2="176" fill="rgb(0, 0, 0)" stroke="rgb(60, 60, 60)" stroke-width="1px" opacity="0.25"></line><line x1="162.02083333333334" y1="0" x2="162.02083333333334" y2="176" fill="rgb(0, 0, 0)" stroke="rgb(60, 60, 60)" stroke-width="1px" opacity="0.25"></line><line x1="185.16666666666666" y1="0" x2="185.16666666666666" y2="176" fill="rgb(0, 0, 0)" stroke="rgb(60, 60, 60)" stroke-width="1px" opacity="0.25"></line><line x1="208.3125" y1="0" x2="208.3125" y2="176" fill="rgb(0, 0, 0)" stroke="rgb(60, 60, 60)" stroke-width="1px" opacity="0.25"></line><line x1="231.45833333333334" y1="0" x2="231.45833333333334" y2="176" fill="rgb(0, 0, 0)" stroke="rgb(60, 60, 60)" stroke-width="1px" opacity="0.25"></line><line x1="254.60416666666666" y1="0" x2="254.60416666666666" y2="176" fill="rgb(0, 0, 0)" stroke="rgb(60, 60, 60)" stroke-width="1px" opacity="0.25"></line><line x1="277.75" y1="0" x2="277.75" y2="176" fill="rgb(0, 0, 0)" stroke="rgb(60, 60, 60)" stroke-width="1px" opacity="0.25"></line></g><g><line x1="0" y1="176" x2="277.75" y2="176" fill="rgb(0, 0, 0)" stroke="rgb(60, 60, 60)" stroke-width="1px" opacity="0.25"></line><line x1="0" y1="164.26666666666668" x2="277.75" y2="164.26666666666668" fill="rgb(0, 0, 0)" stroke="rgb(60, 60, 60)" stroke-width="1px" opacity="0.25"></line><line x1="0" y1="152.53333333333333" x2="277.75" y2="152.53333333333333" fill="rgb(0, 0, 0)" stroke="rgb(60, 60, 60)" stroke-width="1px" opacity="0.25"></line><line x1="0" y1="140.79999999999998" x2="277.75" y2="140.79999999999998" fill="rgb(0, 0, 0)" stroke="rgb(60, 60, 60)" stroke-width="1px" opacity="0.25"></line><line x1="0" y1="129.06666666666666" x2="277.75" y2="129.06666666666666" fill="rgb(0, 0, 0)" stroke="rgb(60, 60, 60)" stroke-width="1px" opacity="0.25"></line><line x1="0" y1="117.33333333333334" x2="277.75" y2="117.33333333333334" fill="rgb(0, 0, 0)" stroke="rgb(60, 60, 60)" stroke-width="1px" opacity="0.25"></line><line x1="0" y1="105.59999999999998" x2="277.75" y2="105.59999999999998" fill="rgb(0, 0, 0)" stroke="rgb(60, 60, 60)" stroke-width="1px" opacity="0.25"></line><line x1="0" y1="93.86666666666667" x2="277.75" y2="93.86666666666667" fill="rgb(0, 0, 0)" stroke="rgb(60, 60, 60)" stroke-width="1px" opacity="0.25"></line><line x1="0" y1="82.13333333333334" x2="277.75" y2="82.13333333333334" fill="rgb(0, 0, 0)" stroke="rgb(60, 60, 60)" stroke-width="1px" opacity="0.25"></line><line x1="0" y1="70.4" x2="277.75" y2="70.4" fill="rgb(0, 0, 0)" stroke="rgb(60, 60, 60)" stroke-width="1px" opacity="0.25"></line><line x1="0" y1="58.66666666666667" x2="277.75" y2="58.66666666666667" fill="rgb(0, 0, 0)" stroke="rgb(60, 60, 60)" stroke-width="1px" opacity="0.25"></line><line x1="0" y1="46.93333333333334" x2="277.75" y2="46.93333333333334" fill="rgb(0, 0, 0)" stroke="rgb(60, 60, 60)" stroke-width="1px" opacity="0.25"></line><line x1="0" y1="35.20000000000002" x2="277.75" y2="35.20000000000002" fill="rgb(0, 0, 0)" stroke="rgb(60, 60, 60)" stroke-width="1px" opacity="0.25"></line><line x1="0" y1="23.46666666666667" x2="277.75" y2="23.46666666666667" fill="rgb(0, 0, 0)" stroke="rgb(60, 60, 60)" stroke-width="1px" opacity="0.25"></line><line x1="0" y1="11.733333333333348" x2="277.75" y2="11.733333333333348" fill="rgb(0, 0, 0)" stroke="rgb(60, 60, 60)" stroke-width="1px" opacity="0.25"></line><line x1="0" y1="0" x2="277.75" y2="0" fill="rgb(0, 0, 0)" stroke="rgb(60, 60, 60)" stroke-width="1px" opacity="0.25"></line></g></g></g><g><g><line x1="0" y1="152.53333333333333" x2="277.75" y2="152.53333333333333" fill="rgb(0, 0, 0)" stroke="rgb(153, 153, 153)" stroke-width="1.5px"></line></g></g><g><g><line x1="23.145833333333332" y1="0" x2="23.145833333333332" y2="176" fill="rgb(0, 0, 0)" stroke="rgb(153, 153, 153)" stroke-width="1.5px"></line></g></g><g><g><g><g><g><path stroke="rgb(238, 51, 119)" stroke-width="2px" d="M27.775000000000002,131.39560019175212L32.40416666666667,145.91819059054058L37.03333333333333,148.02180778185527L41.6625,148.92016888856887L46.291666666666664,149.60185632308324L50.92083333333333,150.1417209625244L55.550000000000004,150.49090281327565L60.17916666666667,150.62973693211873L64.80833333333334,150.71496370633443L69.4375,150.75219867825507L74.06666666666666,151.16954999367397L78.69583333333333,151.4094963292281L83.325,151.28098915219306L87.95416666666667,151.4976549565792L92.58333333333333,151.54333722790082L97.21249999999999,151.57243261933326L101.84166666666665,151.21115422447522L106.47083333333335,151.61120181481044L111.10000000000001,151.90108067989348L115.72916666666667,151.62809515694778L120.35833333333333,151.59363910754521L124.9875,151.49128432273864L129.61666666666667,151.88587596714495L134.24583333333334,152.00105086167653L138.875,151.75817108849685L143.5041666666667,151.7165348947048L148.13333333333333,151.78058162530263L152.76250000000002,152.00445423722266L157.39166666666665,151.95273959338664L162.02083333333334,151.776425999403L166.65,152.08754705836375L171.27916666666667,151.97421599129837L175.90833333333333,151.82813195586203L180.5375,152.0272597491741L185.16666666666666,152.1988108575344L189.79583333333335,152.17195883095263L194.42499999999998,152.13000287065904L199.05416666666667,152.04610769649346L203.6833333333333,151.9396288116773L208.3125,152.22172236641248L212.9416666666667,152.37112664630016L217.57083333333333,152.14238746414583L222.20000000000002,151.98743899861972L226.82916666666665,152.0962536950906L231.45833333333334,152.0615764727195L236.0875,152.1978000621001L240.71666666666667,152.24575099547704L245.34583333333333,152.22768351882695L249.975,152.2483489582936L254.60416666666666,152.2330848544836" style="fill: none;" fill="none"></path></g><g><path stroke="rgb(51, 187, 238)" stroke-width="2px" d="M27.775000000000002,104.51062539418538L32.40416666666667,141.58881802558898L37.03333333333333,144.66245702107747L41.6625,146.76679673989614L46.291666666666664,147.89410967826842L50.92083333333333,145.79418249130248L55.550000000000004,147.39618419806163L60.17916666666667,144.0191531499227L64.80833333333334,147.89814411799114L69.4375,146.63418737252553L74.06666666666666,148.1395854473114L78.69583333333333,147.1967469374339L83.325,146.6127703110377L87.95416666666667,146.27787072658538L92.58333333333333,146.76572278340657L97.21249999999999,145.1812396367391L101.84166666666665,146.98909174601238L106.47083333333335,148.6409871896108L111.10000000000001,148.18019735018413L115.72916666666667,146.9243741750717L120.35833333333333,146.72030233542125L124.9875,146.80414131482442L129.61666666666667,148.83799941539763L134.24583333333334,148.07159224351247L138.875,146.7574567715327L143.5041666666667,147.8873534123103L148.13333333333333,147.721279613177L152.76250000000002,148.3145669221878L157.39166666666665,147.2045448144277L162.02083333333334,148.01509478886922L166.65,149.08794803619384L171.27916666666667,146.5270535469055L175.90833333333333,147.62968515555065L180.5375,148.86811631123226L185.16666666666666,148.6575769106547L189.79583333333335,148.38385044733684L194.42499999999998,146.21035877068837L199.05416666666667,145.7523117383321L203.6833333333333,146.58910436630248L208.3125,149.51953670581182L212.9416666666667,148.5844211101532L217.57083333333333,148.68113751411437L222.20000000000002,147.28970689773558L226.82916666666665,147.7810063680013L231.45833333333334,147.02255705197652L236.0875,148.65013046264647L240.71666666666667,149.38366154034932L245.34583333333333,148.0896899620692L249.975,146.74769937197368L254.60416666666666,147.7949905316035" style="fill: none;" fill="none"></path></g><g><path stroke="rgb(204, 51, 17)" stroke-width="2px" d="M27.775000000000002,33.020482889811205L32.40416666666667,94.28815415700277L37.03333333333333,97.61499423980713L41.6625,109.85106264750164L46.291666666666664,107.67660191853841L50.92083333333333,105.64878323872884L55.550000000000004,112.42894636789958L60.17916666666667,105.0729362487793L64.80833333333334,107.39554964701335L69.4375,100.97715555826824L74.06666666666666,109.79438991546631L78.69583333333333,99.31830584208171L83.325,97.99078896840413L87.95416666666667,105.06202621459961L92.58333333333333,101.32379741668701L97.21249999999999,91.61330401102703L101.84166666666665,98.66625645955403L106.47083333333335,109.65521354675293L111.10000000000001,97.2471477508545L115.72916666666667,91.27509994506836L120.35833333333333,78.76215095520021L124.9875,92.95315411885579L129.61666666666667,100.6377555847168L134.24583333333334,95.47320766448975L138.875,93.6264710744222L143.5041666666667,101.79615643819173L148.13333333333333,97.1139404296875L152.76250000000002,100.1781878789266L157.39166666666665,97.54340413411458L162.02083333333334,96.76880219777425L166.65,101.11382122039795L171.27916666666667,93.59608383178711L175.90833333333333,98.96040077209473L180.5375,104.05784498850505L185.16666666666666,93.41421496073406L189.79583333333335,101.43913606007894L194.42499999999998,79.3869462331136L199.05416666666667,88.03575693766277L203.6833333333333,87.70890350341799L208.3125,106.59858563741048L212.9416666666667,93.25047353108724L217.57083333333333,100.82846088409424L222.20000000000002,80.20734583536783L226.82916666666665,100.14268131256104L231.45833333333334,89.66819877624512L236.0875,96.79902858734131L240.71666666666667,102.30242048899333L245.34583333333333,88.6934851328532L249.975,81.65909372965494L254.60416666666666,85.08679567972818" style="fill: none;" fill="none"></path></g><g><path stroke="rgb(0, 119, 187)" stroke-width="2px" d="M27.775000000000002,96.70080680847168L32.40416666666667,114.36257858276367L37.03333333333333,97.51727600097657L41.6625,116.96780382792156L46.291666666666664,98.75851268768311L50.92083333333333,66.6632937113444L55.550000000000004,109.2436954498291L60.17916666666667,69.32316703796388L64.80833333333334,91.78010164896648L69.4375,82.55131072998049L74.06666666666666,104.68196538289388L78.69583333333333,106.34192708333333L83.325,70.15336469014485L87.95416666666667,103.0002290725708L92.58333333333333,103.64162019093831L97.21249999999999,99.79403928120931L101.84166666666665,89.38362172444661L106.47083333333335,102.85349260965984L111.10000000000001,63.22802467346193L115.72916666666667,65.15781389872232L120.35833333333333,74.14420623779299L124.9875,69.6670778910319L129.61666666666667,98.38123531341553L134.24583333333334,105.09373175303142L138.875,105.30988330841065L143.5041666666667,98.61252454121907L148.13333333333333,82.41130561828615L152.76250000000002,83.66348381042482L157.39166666666665,99.48489017486573L162.02083333333334,96.0548698425293L166.65,85.37661094665529L171.27916666666667,111.08756116231282L175.90833333333333,83.75670166015627L180.5375,102.16700668334961L185.16666666666666,102.84394632975261L189.79583333333335,79.22140744527181L194.42499999999998,78.53803367614748L199.05416666666667,95.77783190409343L203.6833333333333,74.50958747863771L208.3125,106.57767124176026L212.9416666666667,90.21308504740398L217.57083333333333,91.52176462809246L222.20000000000002,83.82494532267252L226.82916666666665,88.87481549580892L231.45833333333334,76.4319704691569L236.0875,78.12245229085286L240.71666666666667,69.54152857462564L245.34583333333333,91.02451883951824L249.975,86.95585238138834L254.60416666666666,39.61734695434572" style="fill: none;" fill="none"></path></g></g></g></g></g></g><g transform="translate(52, 176)" clip-path="url(#clip_1)"><clipPath id="clip_1"><rect width="277" height="23"></rect></clipPath><g><g><line x1="0" y1="0" x2="0" y2="5" style="visibility: inherit;" fill="rgb(0, 0, 0)" stroke="rgb(204, 204, 204)" stroke-width="1px"></line><line x1="23.145833333333332" y1="0" x2="23.145833333333332" y2="5" style="visibility: inherit;" fill="rgb(0, 0, 0)" stroke="rgb(204, 204, 204)" stroke-width="1px"></line><line x1="46.291666666666664" y1="0" x2="46.291666666666664" y2="5" style="visibility: inherit;" fill="rgb(0, 0, 0)" stroke="rgb(204, 204, 204)" stroke-width="1px"></line><line x1="69.4375" y1="0" x2="69.4375" y2="5" style="visibility: inherit;" fill="rgb(0, 0, 0)" stroke="rgb(204, 204, 204)" stroke-width="1px"></line><line x1="92.58333333333333" y1="0" x2="92.58333333333333" y2="5" style="visibility: inherit;" fill="rgb(0, 0, 0)" stroke="rgb(204, 204, 204)" stroke-width="1px"></line><line x1="115.72916666666667" y1="0" x2="115.72916666666667" y2="5" style="visibility: inherit;" fill="rgb(0, 0, 0)" stroke="rgb(204, 204, 204)" stroke-width="1px"></line><line x1="138.875" y1="0" x2="138.875" y2="5" style="visibility: inherit;" fill="rgb(0, 0, 0)" stroke="rgb(204, 204, 204)" stroke-width="1px"></line><line x1="162.02083333333334" y1="0" x2="162.02083333333334" y2="5" style="visibility: inherit;" fill="rgb(0, 0, 0)" stroke="rgb(204, 204, 204)" stroke-width="1px"></line><line x1="185.16666666666666" y1="0" x2="185.16666666666666" y2="5" style="visibility: inherit;" fill="rgb(0, 0, 0)" stroke="rgb(204, 204, 204)" stroke-width="1px"></line><line x1="208.3125" y1="0" x2="208.3125" y2="5" style="visibility: inherit;" fill="rgb(0, 0, 0)" stroke="rgb(204, 204, 204)" stroke-width="1px"></line><line x1="231.45833333333334" y1="0" x2="231.45833333333334" y2="5" style="visibility: inherit;" fill="rgb(0, 0, 0)" stroke="rgb(204, 204, 204)" stroke-width="1px"></line><line x1="254.60416666666666" y1="0" x2="254.60416666666666" y2="5" style="visibility: inherit;" fill="rgb(0, 0, 0)" stroke="rgb(204, 204, 204)" stroke-width="1px"></line><line x1="277.75" y1="0" x2="277.75" y2="5" style="visibility: inherit;" fill="rgb(0, 0, 0)" stroke="rgb(204, 204, 204)" stroke-width="1px"></line></g><g transform="translate(0, 8)"><text x="0" y="0" dx="0em" dy="0.95em" style="text-anchor: middle; visibility: hidden; font-family: &quot;Helvetica Neue&quot;, sans-serif; font-size: 12px; font-weight: 200;" fill="rgb(50, 49, 63)" stroke="none" stroke-width="1px">-1k</text><text x="23.145833333333332" y="0" dx="0em" dy="0.95em" style="text-anchor: middle; visibility: inherit; font-family: &quot;Helvetica Neue&quot;, sans-serif; font-size: 12px; font-weight: 200;" fill="rgb(50, 49, 63)" stroke="none" stroke-width="1px">0</text><text x="46.291666666666664" y="0" dx="0em" dy="0.95em" style="text-anchor: middle; visibility: inherit; font-family: &quot;Helvetica Neue&quot;, sans-serif; font-size: 12px; font-weight: 200;" fill="rgb(50, 49, 63)" stroke="none" stroke-width="1px">1k</text><text x="69.4375" y="0" dx="0em" dy="0.95em" style="text-anchor: middle; visibility: inherit; font-family: &quot;Helvetica Neue&quot;, sans-serif; font-size: 12px; font-weight: 200;" fill="rgb(50, 49, 63)" stroke="none" stroke-width="1px">2k</text><text x="92.58333333333333" y="0" dx="0em" dy="0.95em" style="text-anchor: middle; visibility: inherit; font-family: &quot;Helvetica Neue&quot;, sans-serif; font-size: 12px; font-weight: 200;" fill="rgb(50, 49, 63)" stroke="none" stroke-width="1px">3k</text><text x="115.72916666666667" y="0" dx="0em" dy="0.95em" style="text-anchor: middle; visibility: inherit; font-family: &quot;Helvetica Neue&quot;, sans-serif; font-size: 12px; font-weight: 200;" fill="rgb(50, 49, 63)" stroke="none" stroke-width="1px">4k</text><text x="138.875" y="0" dx="0em" dy="0.95em" style="text-anchor: middle; visibility: inherit; font-family: &quot;Helvetica Neue&quot;, sans-serif; font-size: 12px; font-weight: 200;" fill="rgb(50, 49, 63)" stroke="none" stroke-width="1px">5k</text><text x="162.02083333333334" y="0" dx="0em" dy="0.95em" style="text-anchor: middle; visibility: inherit; font-family: &quot;Helvetica Neue&quot;, sans-serif; font-size: 12px; font-weight: 200;" fill="rgb(50, 49, 63)" stroke="none" stroke-width="1px">6k</text><text x="185.16666666666666" y="0" dx="0em" dy="0.95em" style="text-anchor: middle; visibility: inherit; font-family: &quot;Helvetica Neue&quot;, sans-serif; font-size: 12px; font-weight: 200;" fill="rgb(50, 49, 63)" stroke="none" stroke-width="1px">7k</text><text x="208.3125" y="0" dx="0em" dy="0.95em" style="text-anchor: middle; visibility: inherit; font-family: &quot;Helvetica Neue&quot;, sans-serif; font-size: 12px; font-weight: 200;" fill="rgb(50, 49, 63)" stroke="none" stroke-width="1px">8k</text><text x="231.45833333333334" y="0" dx="0em" dy="0.95em" style="text-anchor: middle; visibility: inherit; font-family: &quot;Helvetica Neue&quot;, sans-serif; font-size: 12px; font-weight: 200;" fill="rgb(50, 49, 63)" stroke="none" stroke-width="1px">9k</text><text x="254.60416666666666" y="0" dx="0em" dy="0.95em" style="text-anchor: middle; visibility: inherit; font-family: &quot;Helvetica Neue&quot;, sans-serif; font-size: 12px; font-weight: 200;" fill="rgb(50, 49, 63)" stroke="none" stroke-width="1px">10k</text><text x="277.75" y="0" dx="0em" dy="0.95em" style="text-anchor: middle; visibility: hidden; font-family: &quot;Helvetica Neue&quot;, sans-serif; font-size: 12px; font-weight: 200;" fill="rgb(50, 49, 63)" stroke="none" stroke-width="1px">11k</text></g><line x1="0" y1="0" x2="277.75" y2="0" fill="rgb(0, 0, 0)" stroke="rgb(204, 204, 204)" stroke-width="1px"></line></g></g></g></g></svg>